<svg xmlns="http://www.w3.org/2000/svg" width="510.309" height="469.523" fill="none" viewBox="0 0 510.309 469.523"><path fill="#202124" d="M255.156 438.663c-29.598 0-49.164-20.532-68.68-54.334L51.08 149.816C31.564 116.014 23.566 88.803 38.364 63.17 53.163 37.54 80.727 30.86 119.76 30.86h270.792c39.032 0 66.596 6.68 81.394 32.311 14.798 25.632 6.8 52.843-12.715 86.645L323.834 384.329c-19.516 33.802-39.083 54.334-68.679 54.334z"/><mask id="a" width="400" height="365" x="56" y="82" maskUnits="userSpaceOnUse"><path fill="#fff" d="M256.001 446.355c-26.375 0-43.811-18.296-61.202-48.418L74.145 188.958c-17.391-30.122-24.518-54.37-11.331-77.211C76 88.906 100.564 82.954 135.346 82.954h241.308c34.782 0 59.345 5.952 72.532 28.793 13.187 22.841 6.06 47.089-11.331 77.211L317.201 397.937c-17.391 30.122-34.827 48.418-61.201 48.418Z"/></mask><g mask="url(#a)" transform="matrix(1.12218 0 0 1.12218 -32.124 -62.23)"><path fill="#c6ff00" d="M344.016 285.041C286.329 262.165 262.181 187.482 259 153h-3v246l193-78.636c-10.958-2.243-47.296-12.447-104.984-35.323zM167.984 285.041C225.671 262.165 249.819 187.482 253 153h3v246L63 320.364c10.958-2.243 47.296-12.447 104.984-35.323z"/><path fill="#fff" d="M297.5 284.816c-27.2-22.837-37-97.393-38.5-131.816h-3v245.58l91-78.502c-5.167-2.238-22.3-12.425-49.5-35.262zM214.5 284.816c27.2-22.837 37-97.393 38.5-131.816h3v245.58l-91-78.502c5.167-2.238 22.3-12.425 49.5-35.262z"/><circle cx="256" cy="153" r="3" fill="#fff"/><path fill="#5f6368" d="M151 350h199v104H151z"/><path fill="#5f6368" d="M358.423 350.438c-.067-.422-.13-.838-.201-1.257a101.469 101.469 0 0 0-1.572-7.66 102.811 102.811 0 0 0-4.059-12.865 102.891 102.891 0 0 0-4.663-10.28 104.587 104.587 0 0 0-7.519-12.263 103.538 103.538 0 0 0-11.35-13.372 103.985 103.985 0 0 0-18.279-14.486c.04-.065.073-.136.114-.201 2.078-3.591 4.16-7.176 6.238-10.766 2.034-3.505 4.066-7.01 6.097-10.515 1.462-2.516 2.923-5.037 4.378-7.553a9.47 9.47 0 0 0 .533-8.436 9.391 9.391 0 0 0-3.882-4.454 9.552 9.552 0 0 0-4.029-1.296 9.666 9.666 0 0 0-1.784.015 9.448 9.448 0 0 0-7.216 4.665c-1.458 2.515-2.92 5.036-4.375 7.552l-6.097 10.515c-2.079 3.59-4.161 7.176-6.239 10.766-.228.392-.459.783-.683 1.18-.316-.126-.627-.251-.943-.371-11.461-4.369-23.891-6.759-36.885-6.759-.357 0-.708 0-1.064.004a103.372 103.372 0 0 0-33.009 5.73c-1.2.417-2.384.859-3.559 1.321-.21-.367-.426-.734-.637-1.1-2.078-3.591-4.161-7.176-6.238-10.766l-6.098-10.515a6640.602 6640.602 0 0 1-4.377-7.552 9.437 9.437 0 0 0-5.757-4.399 9.75 9.75 0 0 0-1.46-.266 9.644 9.644 0 0 0-1.782-.015 9.414 9.414 0 0 0-4.03 1.296 9.436 9.436 0 0 0-3.283 3.269 9.661 9.661 0 0 0-1.023 2.435 9.488 9.488 0 0 0 .135 5.339c.206.632.477 1.25.824 1.847 1.46 2.516 2.921 5.037 4.376 7.553l6.098 10.514c2.078 3.591 4.161 7.176 6.238 10.767.015.03.036.06.051.09a104.121 104.121 0 0 0-11.945 8.652 104.44 104.44 0 0 0-17.863 19.322 102.77 102.77 0 0 0-7.518 12.263 103.034 103.034 0 0 0-11.087 36.598H359a101.069 101.069 0 0 0-.593-4.536z"/></g><path fill="#fff" d="M114.927 88.528h-4.534v4.534h4.534zM155.326 225.05h-4.534v4.533h4.534zM386.997 80.288h-4.534v4.533h4.534zM295.598 191.384h-4.533v4.533h4.533zM325.896 147.518h-4.533v4.533h4.533zM366.296 186.895h-4.534v4.534h4.534zM183.38 90.387h-4.534v4.534h4.534zM345.02 157.718h-9.068v9.068h9.067zM217.046 175.673h-4.534v4.534h4.534zM150.882 134.153h-9.068v9.067h9.068zM204.746 98.243h-9.067v9.067h9.067zM382.051 166.696h-9.067v9.067h9.067zM157.762 167.08h-9.067v9.068h9.067zM397.712 117.395h-9.068v9.067h9.067zM183.425 143.13h-9.067v9.067h9.067z"/><path stroke="#34a853" stroke-miterlimit="10" stroke-width="61.7201" d="M255.156 438.663c-29.598 0-49.164-20.532-68.68-54.334L51.08 149.816C31.564 116.014 23.566 88.803 38.364 63.17 53.163 37.54 80.727 30.86 119.76 30.86h270.792c39.032 0 66.596 6.68 81.394 32.311 14.798 25.632 6.8 52.843-12.715 86.645L323.834 384.329c-19.516 33.802-39.083 54.334-68.679 54.334z"/><path fill="#e9f3eb" d="m158.77 40.681 1.455 3.697H153.236l-.848-2.444-5.293-14.806-.99-3.232h-.242l-.888 3.232-5.09 14.806-.768 2.444h-7.09l1.434-3.737 8.585-22.22 1.151-3.03h5.817l1.172 3.03zm-4.564-1.777h-8.302v-4.727h6.484zm-8.302 0h-8.484l1.737-4.727h6.747zm50.725 2.626v2.848h-6l-1.595-2.485-10.1-15.755h-.222l.141 4.16v14.08h-6.544v-3.09l-.02-21.715v-4.12h6.827l1.555 2.464 9.575 15.068h.222l-.162-4.221V15.452h6.322v2.99zm25.446 2.848h-10.382V15.452h10.382c4.417 0 7.972 1.327 10.665 3.98 2.694 2.64 4.04 6.127 4.04 10.463 0 4.363-1.346 7.871-4.04 10.524-2.693 2.64-6.248 3.959-10.665 3.959zm-3.757-22.846V38.48h3.373c2.559.027 4.592-.707 6.1-2.202 1.509-1.508 2.263-3.609 2.263-6.302 0-2.68-.754-4.754-2.262-6.222-1.495-1.48-3.529-2.222-6.1-2.222zm38.534 19.735v3.11h-6.525V15.453h11.433c2.868 0 5.286.849 7.252 2.546 1.966 1.696 2.949 3.965 2.949 6.807 0 2.626-.936 4.794-2.808 6.504-1.872 1.697-4.289 2.545-7.251 2.545h-8.969v-4.727h8.2c1.2 0 2.203-.37 3.01-1.11.809-.755 1.213-1.731 1.213-2.93 0-1.09-.39-2-1.172-2.726-.781-.741-1.744-1.111-2.888-1.111h-4.444zm8.14.667-6.848-10.504 6.888-.242 7.212 10.524 1.918 2.666h-7.594l-1.576-2.444zm35.097 3.09c-4.16 0-7.722-1.394-10.685-4.181-2.95-2.788-4.424-6.437-4.424-10.948s1.482-8.154 4.444-10.928c2.976-2.774 6.531-4.16 10.665-4.16 4.121 0 7.663 1.406 10.625 4.22 2.976 2.802 4.464 6.424 4.464 10.868 0 4.417-1.481 8.046-4.444 10.887-2.949 2.828-6.497 4.242-10.645 4.242zm0-6.443c2.41 0 4.417-.822 6.02-2.465 1.616-1.643 2.424-3.716 2.424-6.221 0-2.532-.815-4.605-2.444-6.221-1.616-1.616-3.616-2.424-6-2.424-2.383 0-4.39.814-6.019 2.444-1.616 1.616-2.424 3.683-2.424 6.201 0 2.532.801 4.612 2.404 6.242 1.616 1.629 3.629 2.444 6.04 2.444zm35.458 2.484v3.313h-6.807V15.452h6.807v3.313zm25.443 3.313h-10.382V15.452h10.382c4.417 0 7.972 1.327 10.666 3.98 2.693 2.64 4.04 6.127 4.04 10.463 0 4.363-1.347 7.871-4.04 10.524-2.694 2.64-6.249 3.959-10.666 3.959zm-3.757-22.846V38.48h3.374c2.558.027 4.591-.707 6.1-2.202 1.508-1.508 2.262-3.609 2.262-6.302 0-2.68-.754-4.754-2.262-6.222-1.495-1.48-3.528-2.222-6.1-2.222zM233.369 345.404v4.208h-8.416V280.99l-13.972 9.988c-1.832 1.31-2.749 1.963-2.749 1.963l-2.188-3.366-2.132-3.198c0-.037.973-.749 2.917-2.132l16.496-11.84 4.49-3.31h5.554v4.096zm11.785-37.313 4.601-34.788.561-4.04H291.276V277.511h-34.451l-3.703 27.718.224.056c1.908-1.944 4.357-3.497 7.35-4.657 2.993-1.197 6.416-1.795 10.268-1.795 7.257 0 13.354 2.488 18.292 7.462 4.937 4.938 7.406 11.13 7.406 18.573 0 7.63-2.45 13.97-7.35 19.02-4.862 5.013-11.241 7.52-19.133 7.52-7.07 0-13.037-1.796-17.9-5.387-4.861-3.591-8.06-7.8-9.594-12.625l-1.066-3.76 3.872-1.458 4.04-1.515 1.066 3.984c.973 2.955 3.105 5.798 6.396 8.528 3.33 2.73 7.63 4.096 12.905 4.096 5.76 0 10.212-1.646 13.354-4.937 3.142-3.33 4.713-7.762 4.713-13.298 0-5.311-1.758-9.632-5.274-12.961-3.479-3.33-8.004-4.994-13.578-4.994-3.33 0-6.153.468-8.473 1.403-2.32.897-4.264 2.169-5.835 3.815l-2.188 2.525-3.984-1.627-3.928-1.571.449-3.535zM255.29 73.555c-7.512 0-13.601 5.914-13.601 13.209v16.293a2.55 2.55 0 1 0 5.101 0v-4.392a5.1 5.1 0 0 1 5.1-5.1h6.801a5.1 5.1 0 0 1 5.1 5.1v4.392a2.55 2.55 0 1 0 5.102 0V86.764c0-7.295-6.09-13.21-13.601-13.21z"/></svg>