<svg version="1.1" viewBox="0.0 0.0 743.5196850393701 419.45669291338584" fill="none" stroke="none" stroke-linecap="square" stroke-miterlimit="10" xmlns:xlink="http://www.w3.org/1999/xlink" xmlns="http://www.w3.org/2000/svg"><clipPath id="p.0"><path d="m0 0l743.5197 0l0 419.4567l-743.5197 0l0 -419.4567z" clip-rule="nonzero"/></clipPath><g clip-path="url(#p.0)"><path fill="#000000" fill-opacity="0.0" d="m0 0l743.5197 0l0 419.4567l-743.5197 0z" fill-rule="evenodd"/><path fill="#eeeeee" d="m6.5905514 48.90634l0 0c0 -22.923899 18.583492 -41.507393 41.507393 -41.507393l166.02458 0l0 0c11.008453 0 21.56601 4.3730874 29.350159 12.157232c7.784149 7.7841473 12.157242 18.341713 12.157242 29.350159l0 323.3474c0 22.92392 -18.583496 41.507416 -41.5074 41.507416l-166.02458 0c-22.923899 0 -41.507393 -18.583496 -41.507393 -41.507416z" fill-rule="evenodd"/><path stroke="#595959" stroke-width="1.0" stroke-linejoin="round" stroke-linecap="butt" d="m6.5905514 48.90634l0 0c0 -22.923899 18.583492 -41.507393 41.507393 -41.507393l166.02458 0l0 0c11.008453 0 21.56601 4.3730874 29.350159 12.157232c7.784149 7.7841473 12.157242 18.341713 12.157242 29.350159l0 323.3474c0 22.92392 -18.583496 41.507416 -41.5074 41.507416l-166.02458 0c-22.923899 0 -41.507393 -18.583496 -41.507393 -41.507416z" fill-rule="evenodd"/><path fill="#000000" d="m87.275734 33.116673l4.5 0q1.109375 0 2.0625 0.515625q0.953125 0.5 1.515625 1.40625q0.578125 0.890625 0.578125 2.03125q0 0.9375 -0.421875 1.75q-0.421875 0.796875 -1.171875 1.34375q-0.734375 0.53125 -1.625 0.71875l-0.03125 0.046875l3.765625 5.46875l0 0.078125l-1.859375 0l-3.640625 -5.453125l-2.09375 0l0 5.453125l-1.578125 0l0 -13.359375zm4.40625 6.4375q0.703125 0 1.296875 -0.3125q0.609375 -0.328125 0.96875 -0.890625q0.375 -0.5625 0.375 -1.28125q0 -0.609375 -0.328125 -1.171875q-0.3125 -0.5625 -0.890625 -0.90625q-0.5625 -0.359375 -1.296875 -0.359375l-2.953125 0l0 4.921875l2.828125 0zm10.245911 7.21875q-1.359375 0 -2.4375 -0.640625q-1.078125 -0.65625 -1.6875 -1.796875q-0.609375 -1.15625 -0.609375 -2.59375q0 -1.359375 0.5625 -2.53125q0.578125 -1.171875 1.625 -1.859375q1.0625 -0.6875 2.421875 -0.6875q1.390625 0 2.421875 0.625q1.03125 0.625 1.578125 1.734375q0.546875 1.09375 0.546875 2.515625q0 0.21875 -0.03125 0.484375l-7.546875 0q0.0625 1.078125 0.53125 1.828125q0.46875 0.734375 1.1875 1.109375q0.71875 0.375 1.5 0.375q1.859375 0 2.8125 -1.71875l1.34375 0.65625q-0.59375 1.140625 -1.65625 1.828125q-1.0625 0.671875 -2.5625 0.671875zm2.75 -6.0625q-0.046875 -0.59375 -0.34375 -1.1875q-0.296875 -0.609375 -0.9375 -1.015625q-0.625 -0.40625 -1.59375 -0.40625q-1.125 0 -1.90625 0.71875q-0.78125 0.71875 -1.03125 1.890625l5.8125 0zm3.4409637 -3.75l1.515625 0l0 1.421875l0.078125 0q0.421875 -0.734375 1.28125 -1.21875q0.875 -0.5 1.96875 -0.5q1.28125 0 2.3125 0.65625q1.046875 0.65625 1.640625 1.8125q0.59375 1.15625 0.59375 2.59375q0 1.453125 -0.59375 2.609375q-0.59375 1.140625 -1.640625 1.796875q-1.03125 0.640625 -2.3125 0.640625q-1.09375 0 -1.96875 -0.484375q-0.859375 -0.5 -1.28125 -1.21875l-0.078125 0l0.078125 1.3125l0 4.125l-1.59375 0l0 -13.546875zm4.671875 8.375q0.8125 0 1.546875 -0.4375q0.734375 -0.453125 1.15625 -1.265625q0.4375 -0.828125 0.4375 -1.90625q0 -1.09375 -0.4375 -1.90625q-0.421875 -0.828125 -1.15625 -1.265625q-0.734375 -0.453125 -1.546875 -0.453125q-0.84375 0 -1.5625 0.453125q-0.71875 0.4375 -1.15625 1.265625q-0.4375 0.8125 -0.4375 1.90625q0 1.078125 0.4375 1.90625q0.4375 0.8125 1.15625 1.265625q0.71875 0.4375 1.5625 0.4375zm10.953308 1.4375q-1.40625 0 -2.53125 -0.671875q-1.109375 -0.671875 -1.734375 -1.828125q-0.625 -1.15625 -0.625 -2.546875q0 -1.40625 0.625 -2.5625q0.625 -1.15625 1.734375 -1.828125q1.125 -0.671875 2.53125 -0.671875q1.390625 0 2.515625 0.671875q1.125 0.671875 1.7500076 1.828125q0.625 1.15625 0.625 2.5625q0 1.390625 -0.625 2.546875q-0.6250076 1.15625 -1.7500076 1.828125q-1.125 0.671875 -2.515625 0.671875zm0 -1.4375q0.875 0 1.625 -0.4375q0.765625 -0.4375 1.21875 -1.25q0.453125 -0.828125 0.453125 -1.921875q0 -1.109375 -0.453125 -1.921875q-0.453125 -0.828125 -1.21875 -1.265625q-0.75 -0.4375 -1.625 -0.4375q-0.875 0 -1.640625 0.4375q-0.765625 0.4375 -1.234375 1.265625q-0.453125 0.8125 -0.453125 1.921875q0 1.09375 0.453125 1.921875q0.46875 0.8125 1.234375 1.25q0.765625 0.4375 1.640625 0.4375zm9.963295 1.4375q-1.53125 0 -2.5625 -0.71875q-1.015625 -0.71875 -1.453125 -1.828125l1.421875 -0.640625q0.34375 0.859375 1.046875 1.328125q0.703125 0.46875 1.546875 0.46875q0.890625 0 1.515625 -0.359375q0.640625 -0.375 0.640625 -1.046875q0 -0.59375 -0.5 -0.953125q-0.5 -0.375 -1.578125 -0.625l-1.15625 -0.3125q-1.140625 -0.28125 -1.875 -0.9375q-0.71875 -0.671875 -0.71875 -1.75q0 -0.8125 0.484375 -1.4375q0.5 -0.625 1.3125 -0.953125q0.828125 -0.34375 1.78125 -0.34375q1.25 0 2.21875 0.546875q0.984375 0.53125 1.390625 1.5l-1.375 0.640625q-0.640625 -1.265625 -2.25 -1.265625q-0.796875 0 -1.390625 0.359375q-0.578125 0.359375 -0.578125 0.921875q0 0.53125 0.40625 0.859375q0.421875 0.3125 1.234375 0.515625l1.390625 0.359375q1.390625 0.359375 2.09375 1.0625q0.71875 0.6875 0.71875 1.703125q0 0.875 -0.515625 1.546875q-0.5 0.65625 -1.359375 1.015625q-0.84375 0.34375 -1.890625 0.34375zm6.340439 -11.5625q-0.46875 0 -0.8125 -0.328125q-0.328125 -0.34375 -0.328125 -0.8125q0 -0.484375 0.328125 -0.8125q0.34375 -0.328125 0.8125 -0.328125q0.484375 0 0.8125 0.328125q0.328125 0.328125 0.328125 0.8125q0 0.46875 -0.328125 0.8125q-0.328125 0.328125 -0.8125 0.328125zm-0.78125 1.75l1.578125 0l0 9.515625l-1.578125 0l0 -9.515625zm7.6229706 9.671875q-0.578125 0 -1.078125 -0.1875q-0.484375 -0.1875 -0.828125 -0.515625q-0.734375 -0.703125 -0.734375 -1.953125l0 -5.578125l-1.671875 0l0 -1.4375l1.671875 0l0 -2.6875l1.578125 0l0 2.6875l2.328125 0l0 1.4375l-2.328125 0l0 5.1875q0 0.78125 0.296875 1.15625q0.359375 0.40625 1.03125 0.40625q0.578125 0 1.046875 -0.3125l0 1.546875q-0.28125 0.125 -0.578125 0.1875q-0.28125 0.0625 -0.734375 0.0625zm7.151886 0.140625q-1.40625 0 -2.53125 -0.671875q-1.109375 -0.671875 -1.734375 -1.828125q-0.625 -1.15625 -0.625 -2.546875q0 -1.40625 0.625 -2.5625q0.625 -1.15625 1.734375 -1.828125q1.125 -0.671875 2.53125 -0.671875q1.390625 0 2.515625 0.671875q1.125 0.671875 1.75 1.828125q0.625 1.15625 0.625 2.5625q0 1.390625 -0.625 2.546875q-0.625 1.15625 -1.75 1.828125q-1.125 0.671875 -2.515625 0.671875zm0 -1.4375q0.875 0 1.625 -0.4375q0.765625 -0.4375 1.21875 -1.25q0.453125 -0.828125 0.453125 -1.921875q0 -1.109375 -0.453125 -1.921875q-0.453125 -0.828125 -1.21875 -1.265625q-0.75 -0.4375 -1.625 -0.4375q-0.875 0 -1.640625 0.4375q-0.765625 0.4375 -1.234375 1.265625q-0.453125 0.8125 -0.453125 1.921875q0 1.09375 0.453125 1.921875q0.46875 0.8125 1.234375 1.25q0.765625 0.4375 1.640625 0.4375zm6.5418396 -8.375l1.515625 0l0 1.53125l0.078125 0q0.28125 -0.78125 1.078125 -1.296875q0.796875 -0.515625 1.671875 -0.515625q0.65625 0 1.125 0.1875l0 1.71875q-0.59375 -0.296875 -1.34375 -0.296875q-0.6875 0 -1.265625 0.390625q-0.578125 0.390625 -0.921875 1.0625q-0.34375 0.65625 -0.34375 1.421875l0 5.3125l-1.59375 0l0 -9.515625zm10.313019 8.921875l-3.921875 -8.921875l1.703125 0l2.984375 7.078125l0.046875 0l2.875 -7.078125l1.71875 0l-5.890625 13.546875l-1.640625 0l2.125 -4.625z" fill-rule="nonzero"/><path fill="#ffffff" d="m41.780838 225.2664l0 0c0 6.9340057 22.484474 12.555115 50.220474 12.555115c27.736 0 50.220474 -5.621109 50.220474 -12.555115l0 77.81889c0 6.934021 -22.484474 12.555115 -50.220474 12.555115c-27.736 0 -50.220474 -5.6210938 -50.220474 -12.555115z" fill-rule="evenodd"/><path fill="#ffffff" d="m41.780838 225.2664l0 0c0 -6.9339905 22.484474 -12.555115 50.220474 -12.555115c27.736 0 50.220474 5.6211243 50.220474 12.555115l0 0c0 6.9340057 -22.484474 12.555115 -50.220474 12.555115c-27.736 0 -50.220474 -5.621109 -50.220474 -12.555115z" fill-rule="evenodd"/><path fill="#000000" fill-opacity="0.0" d="m142.22179 225.2664l0 0c0 6.9340057 -22.484474 12.555115 -50.220474 12.555115c-27.736 0 -50.220474 -5.621109 -50.220474 -12.555115l0 0c0 -6.9339905 22.484474 -12.555115 50.220474 -12.555115c27.736 0 50.220474 5.6211243 50.220474 12.555115l0 77.81889c0 6.934021 -22.484474 12.555115 -50.220474 12.555115c-27.736 0 -50.220474 -5.6210938 -50.220474 -12.555115l0 -77.81889" fill-rule="evenodd"/><path stroke="#595959" stroke-width="1.0" stroke-linejoin="round" stroke-linecap="butt" d="m142.22179 225.2664l0 0c0 6.9340057 -22.484474 12.555115 -50.220474 12.555115c-27.736 0 -50.220474 -5.621109 -50.220474 -12.555115l0 0c0 -6.9339905 22.484474 -12.555115 50.220474 -12.555115c27.736 0 50.220474 5.6211243 50.220474 12.555115l0 77.81889c0 6.934021 -22.484474 12.555115 -50.220474 12.555115c-27.736 0 -50.220474 -5.6210938 -50.220474 -12.555115l0 -77.81889" fill-rule="evenodd"/><path fill="#000000" d="m58.989594 255.31342l0 -11.453125l3.953125 0q1.328125 0 2.03125 0.15625q0.984375 0.234375 1.6875 0.828125q0.90625 0.765625 1.34375 1.953125q0.453125 1.1875 0.453125 2.71875q0 1.3125 -0.3125 2.328125q-0.296875 1.0 -0.78125 1.65625q-0.46875 0.65625 -1.03125 1.046875q-0.5625 0.375 -1.375 0.578125q-0.796875 0.1875 -1.828125 0.1875l-4.140625 0zm1.515625 -1.359375l2.453125 0q1.125 0 1.765625 -0.203125q0.65625 -0.21875 1.03125 -0.59375q0.546875 -0.546875 0.84375 -1.453125q0.296875 -0.90625 0.296875 -2.203125q0 -1.796875 -0.59375 -2.765625q-0.578125 -0.96875 -1.421875 -1.296875q-0.609375 -0.234375 -1.96875 -0.234375l-2.40625 0l0 8.75zm15.2734375 0.328125q-0.78125 0.671875 -1.5 0.953125q-0.71875 0.265625 -1.546875 0.265625q-1.375 0 -2.109375 -0.671875q-0.734375 -0.671875 -0.734375 -1.703125q0 -0.609375 0.28125 -1.109375q0.28125 -0.515625 0.71875 -0.8125q0.453125 -0.3125 1.015625 -0.46875q0.421875 -0.109375 1.25 -0.203125q1.703125 -0.203125 2.515625 -0.484375q0 -0.296875 0 -0.375q0 -0.859375 -0.390625 -1.203125q-0.546875 -0.484375 -1.609375 -0.484375q-0.984375 0 -1.46875 0.359375q-0.46875 0.34375 -0.6875 1.21875l-1.375 -0.1875q0.1875 -0.875 0.609375 -1.421875q0.4375 -0.546875 1.25 -0.828125q0.8125 -0.296875 1.875 -0.296875q1.0625 0 1.71875 0.25q0.671875 0.25 0.984375 0.625q0.3125 0.375 0.4375 0.953125q0.078125 0.359375 0.078125 1.296875l0 1.875q0 1.96875 0.078125 2.484375q0.09375 0.515625 0.359375 1.0l-1.46875 0q-0.21875 -0.4375 -0.28125 -1.03125zm-0.109375 -3.140625q-0.765625 0.3125 -2.296875 0.53125q-0.875 0.125 -1.234375 0.28125q-0.359375 0.15625 -0.5625 0.46875q-0.1875 0.296875 -0.1875 0.65625q0 0.5625 0.421875 0.9375q0.4375 0.375 1.25 0.375q0.8125 0 1.4375 -0.34375q0.640625 -0.359375 0.9375 -0.984375q0.234375 -0.46875 0.234375 -1.40625l0 -0.515625zm6.6640625 2.90625l0.203125 1.25q-0.59375 0.125 -1.0625 0.125q-0.765625 0 -1.1875 -0.234375q-0.421875 -0.25 -0.59375 -0.640625q-0.171875 -0.40625 -0.171875 -1.671875l0 -4.765625l-1.03125 0l0 -1.09375l1.03125 0l0 -2.0625l1.40625 -0.84375l0 2.90625l1.40625 0l0 1.09375l-1.40625 0l0 4.84375q0 0.609375 0.0625 0.78125q0.078125 0.171875 0.25 0.28125q0.171875 0.09375 0.484375 0.09375q0.234375 0 0.609375 -0.0625zm6.7890625 0.234375q-0.78125 0.671875 -1.5 0.953125q-0.71875 0.265625 -1.546875 0.265625q-1.375 0 -2.109375 -0.671875q-0.734375 -0.671875 -0.734375 -1.703125q0 -0.609375 0.28125 -1.109375q0.28125 -0.515625 0.71875 -0.8125q0.453125 -0.3125 1.015625 -0.46875q0.421875 -0.109375 1.25 -0.203125q1.703125 -0.203125 2.515625 -0.484375q0 -0.296875 0 -0.375q0 -0.859375 -0.390625 -1.203125q-0.546875 -0.484375 -1.609375 -0.484375q-0.984375 0 -1.46875 0.359375q-0.46875 0.34375 -0.6875 1.21875l-1.375 -0.1875q0.1875 -0.875 0.609375 -1.421875q0.4375 -0.546875 1.25 -0.828125q0.8125 -0.296875 1.875 -0.296875q1.0625 0 1.71875 0.25q0.671875 0.25 0.984375 0.625q0.3125 0.375 0.4375 0.953125q0.078125 0.359375 0.078125 1.296875l0 1.875q0 1.96875 0.078125 2.484375q0.09375 0.515625 0.359375 1.0l-1.46875 0q-0.21875 -0.4375 -0.28125 -1.03125zm-0.109375 -3.140625q-0.765625 0.3125 -2.296875 0.53125q-0.875 0.125 -1.234375 0.28125q-0.359375 0.15625 -0.5625 0.46875q-0.1875 0.296875 -0.1875 0.65625q0 0.5625 0.421875 0.9375q0.4375 0.375 1.25 0.375q0.8125 0 1.4375 -0.34375q0.640625 -0.359375 0.9375 -0.984375q0.234375 -0.46875 0.234375 -1.40625l0 -0.515625zm4.8984375 4.171875l-1.3125 0l0 -11.453125l1.40625 0l0 4.078125q0.890625 -1.109375 2.28125 -1.109375q0.765625 0 1.4375 0.3125q0.6875 0.296875 1.125 0.859375q0.453125 0.5625 0.703125 1.359375q0.25 0.78125 0.25 1.671875q0 2.140625 -1.0625 3.3125q-1.046875 1.15625 -2.53125 1.15625q-1.46875 0 -2.296875 -1.234375l0 1.046875zm-0.015625 -4.21875q0 1.5 0.40625 2.15625q0.65625 1.09375 1.796875 1.09375q0.921875 0 1.59375 -0.796875q0.671875 -0.8125 0.671875 -2.390625q0 -1.625 -0.65625 -2.390625q-0.640625 -0.78125 -1.546875 -0.78125q-0.921875 0 -1.59375 0.796875q-0.671875 0.796875 -0.671875 2.3125zm13.0234375 3.1875q-0.78125 0.671875 -1.5 0.953125q-0.71875 0.265625 -1.546875 0.265625q-1.375 0 -2.109375 -0.671875q-0.734375 -0.671875 -0.734375 -1.703125q0 -0.609375 0.28125 -1.109375q0.28125 -0.515625 0.71875 -0.8125q0.453125 -0.3125 1.015625 -0.46875q0.421875 -0.109375 1.25 -0.203125q1.703125 -0.203125 2.515625 -0.484375q0 -0.296875 0 -0.375q0 -0.859375 -0.390625 -1.203125q-0.546875 -0.484375 -1.609375 -0.484375q-0.984375 0 -1.46875 0.359375q-0.46875 0.34375 -0.6875 1.21875l-1.375 -0.1875q0.1875 -0.875 0.609375 -1.421875q0.4375 -0.546875 1.25 -0.828125q0.8125 -0.296875 1.875 -0.296875q1.0625 0 1.71875 0.25q0.671875 0.25 0.984375 0.625q0.3125 0.375 0.4375 0.953125q0.078125 0.359375 0.078125 1.296875l0 1.875q0 1.96875 0.078125 2.484375q0.09375 0.515625 0.359375 1.0l-1.46875 0q-0.21875 -0.4375 -0.28125 -1.03125zm-0.109375 -3.140625q-0.765625 0.3125 -2.296875 0.53125q-0.875 0.125 -1.234375 0.28125q-0.359375 0.15625 -0.5625 0.46875q-0.1875 0.296875 -0.1875 0.65625q0 0.5625 0.421875 0.9375q0.4375 0.375 1.25 0.375q0.8125 0 1.4375 -0.34375q0.640625 -0.359375 0.9375 -0.984375q0.234375 -0.46875 0.234375 -1.40625l0 -0.515625zm3.0390625 1.6875l1.390625 -0.21875q0.109375 0.84375 0.640625 1.296875q0.546875 0.4375 1.5 0.4375q0.96875 0 1.4375 -0.390625q0.46875 -0.40625 0.46875 -0.9375q0 -0.46875 -0.40625 -0.75q-0.296875 -0.1875 -1.4375 -0.46875q-1.546875 -0.390625 -2.15625 -0.671875q-0.59375 -0.296875 -0.90625 -0.796875q-0.296875 -0.5 -0.296875 -1.109375q0 -0.5625 0.25 -1.03125q0.25 -0.46875 0.6875 -0.78125q0.328125 -0.25 0.890625 -0.40625q0.578125 -0.171875 1.21875 -0.171875q0.984375 0 1.71875 0.28125q0.734375 0.28125 1.078125 0.765625q0.359375 0.46875 0.5 1.28125l-1.375 0.1875q-0.09375 -0.640625 -0.546875 -1.0q-0.453125 -0.359375 -1.265625 -0.359375q-0.96875 0 -1.390625 0.328125q-0.40625 0.3125 -0.40625 0.734375q0 0.28125 0.171875 0.5q0.171875 0.21875 0.53125 0.375q0.21875 0.078125 1.25 0.359375q1.484375 0.390625 2.078125 0.65625q0.59375 0.25 0.921875 0.734375q0.34375 0.484375 0.34375 1.203125q0 0.703125 -0.421875 1.328125q-0.40625 0.609375 -1.1875 0.953125q-0.765625 0.34375 -1.734375 0.34375q-1.625 0 -2.46875 -0.671875q-0.84375 -0.671875 -1.078125 -2.0zm14.234375 -0.1875l1.453125 0.171875q-0.34375 1.28125 -1.28125 1.984375q-0.921875 0.703125 -2.359375 0.703125q-1.828125 0 -2.890625 -1.125q-1.0625 -1.125 -1.0625 -3.140625q0 -2.09375 1.078125 -3.25q1.078125 -1.15625 2.796875 -1.15625q1.65625 0 2.703125 1.140625q1.0625 1.125 1.0625 3.171875q0 0.125 0 0.375l-6.1875 0q0.078125 1.375 0.765625 2.109375q0.703125 0.71875 1.734375 0.71875q0.78125 0 1.328125 -0.40625q0.546875 -0.40625 0.859375 -1.296875zm-4.609375 -2.28125l4.625 0q-0.09375 -1.046875 -0.53125 -1.5625q-0.671875 -0.8125 -1.734375 -0.8125q-0.96875 0 -1.640625 0.65625q-0.65625 0.640625 -0.71875 1.71875z" fill-rule="nonzero"/><path fill="#666666" d="m55.191742 281.7078l1.0625 -0.09375q0.078125 0.65625 0.359375 1.0625q0.28125 0.40625 0.859375 0.671875q0.59375 0.25 1.328125 0.25q0.640625 0 1.140625 -0.1875q0.5 -0.203125 0.734375 -0.53125q0.25 -0.34375 0.25 -0.734375q0 -0.40625 -0.234375 -0.703125q-0.234375 -0.3125 -0.765625 -0.515625q-0.359375 -0.140625 -1.546875 -0.421875q-1.171875 -0.28125 -1.640625 -0.53125q-0.625 -0.328125 -0.921875 -0.796875q-0.296875 -0.484375 -0.296875 -1.078125q0 -0.640625 0.359375 -1.203125q0.375 -0.578125 1.078125 -0.859375q0.71875 -0.296875 1.578125 -0.296875q0.953125 0 1.6875 0.3125q0.734375 0.296875 1.125 0.90625q0.390625 0.59375 0.421875 1.34375l-1.09375 0.078125q-0.09375 -0.8125 -0.609375 -1.21875q-0.5 -0.421875 -1.484375 -0.421875q-1.03125 0 -1.5 0.375q-0.46875 0.375 -0.46875 0.90625q0 0.46875 0.328125 0.765625q0.328125 0.296875 1.703125 0.609375q1.390625 0.3125 1.90625 0.546875q0.75 0.359375 1.109375 0.890625q0.359375 0.515625 0.359375 1.21875q0 0.6875 -0.390625 1.296875q-0.390625 0.59375 -1.125 0.9375q-0.734375 0.328125 -1.65625 0.328125q-1.171875 0 -1.96875 -0.328125q-0.78125 -0.34375 -1.234375 -1.03125q-0.4375 -0.6875 -0.453125 -1.546875zm8.253906 -4.609375l0 -1.21875l1.0625 0l0 1.21875l-1.0625 0zm0 7.375l0 -6.21875l1.0625 0l0 6.21875l-1.0625 0zm2.6660156 0l0 -6.21875l0.9375 0l0 0.875q0.6875 -1.015625 1.984375 -1.015625q0.5625 0 1.03125 0.203125q0.484375 0.203125 0.71875 0.53125q0.234375 0.328125 0.328125 0.765625q0.046875 0.296875 0.046875 1.03125l0 3.828125l-1.046875 0l0 -3.78125q0 -0.65625 -0.125 -0.96875q-0.125 -0.3125 -0.4375 -0.5q-0.3125 -0.203125 -0.734375 -0.203125q-0.671875 0 -1.171875 0.4375q-0.484375 0.421875 -0.484375 1.609375l0 3.40625l-1.046875 0zm6.470703 0.515625l1.03125 0.15625q0.0625 0.46875 0.359375 0.6875q0.390625 0.296875 1.0625 0.296875q0.734375 0 1.125 -0.296875q0.40625 -0.296875 0.546875 -0.8125q0.09375 -0.328125 0.078125 -1.359375q-0.6875 0.8125 -1.71875 0.8125q-1.28125 0 -1.984375 -0.921875q-0.703125 -0.9375 -0.703125 -2.21875q0 -0.890625 0.3125 -1.640625q0.328125 -0.765625 0.9375 -1.171875q0.609375 -0.40625 1.4375 -0.40625q1.109375 0 1.828125 0.890625l0 -0.75l0.96875 0l0 5.375q0 1.453125 -0.296875 2.0625q-0.296875 0.609375 -0.9375 0.953125q-0.640625 0.359375 -1.578125 0.359375q-1.109375 0 -1.796875 -0.5q-0.6875 -0.5 -0.671875 -1.515625zm0.875 -3.734375q0 1.21875 0.484375 1.78125q0.484375 0.5625 1.21875 0.5625q0.734375 0 1.21875 -0.5625q0.5 -0.5625 0.5 -1.75q0 -1.140625 -0.515625 -1.71875q-0.5 -0.578125 -1.21875 -0.578125q-0.703125 0 -1.203125 0.578125q-0.484375 0.5625 -0.484375 1.6875zm5.970703 3.21875l0 -8.59375l1.0625 0l0 8.59375l-1.0625 0zm6.9472656 -2.0l1.09375 0.125q-0.25 0.953125 -0.953125 1.484375q-0.703125 0.53125 -1.78125 0.53125q-1.359375 0 -2.171875 -0.84375q-0.796875 -0.84375 -0.796875 -2.359375q0 -1.5625 0.8125 -2.421875q0.8125 -0.875 2.09375 -0.875q1.25 0 2.03125 0.84375q0.796875 0.84375 0.796875 2.390625q0 0.09375 0 0.28125l-4.640625 0q0.0625 1.03125 0.578125 1.578125q0.515625 0.53125 1.296875 0.53125q0.578125 0 0.984375 -0.296875q0.421875 -0.3125 0.65625 -0.96875zm-3.453125 -1.703125l3.46875 0q-0.0625 -0.796875 -0.390625 -1.1875q-0.515625 -0.609375 -1.3125 -0.609375q-0.734375 0 -1.234375 0.484375q-0.484375 0.484375 -0.53125 1.3125zm8.9609375 0.9375l1.0625 -0.09375q0.078125 0.65625 0.359375 1.0625q0.28125 0.40625 0.859375 0.671875q0.59375 0.25 1.328125 0.25q0.640625 0 1.140625 -0.1875q0.5 -0.203125 0.734375 -0.53125q0.25 -0.34375 0.25 -0.734375q0 -0.40625 -0.234375 -0.703125q-0.234375 -0.3125 -0.765625 -0.515625q-0.359375 -0.140625 -1.546875 -0.421875q-1.171875 -0.28125 -1.640625 -0.53125q-0.625 -0.328125 -0.921875 -0.796875q-0.296875 -0.484375 -0.296875 -1.078125q0 -0.640625 0.359375 -1.203125q0.375 -0.578125 1.078125 -0.859375q0.71875 -0.296875 1.578125 -0.296875q0.953125 0 1.6875 0.3125q0.734375 0.296875 1.125 0.90625q0.390625 0.59375 0.421875 1.34375l-1.09375 0.078125q-0.09375 -0.8125 -0.609375 -1.21875q-0.5 -0.421875 -1.484375 -0.421875q-1.03125 0 -1.5 0.375q-0.46875 0.375 -0.46875 0.90625q0 0.46875 0.328125 0.765625q0.328125 0.296875 1.703125 0.609375q1.390625 0.3125 1.90625 0.546875q0.75 0.359375 1.109375 0.890625q0.359375 0.515625 0.359375 1.21875q0 0.6875 -0.390625 1.296875q-0.390625 0.59375 -1.125 0.9375q-0.734375 0.328125 -1.65625 0.328125q-1.171875 0 -1.96875 -0.328125q-0.78125 -0.34375 -1.234375 -1.03125q-0.4375 -0.6875 -0.453125 -1.546875zm7.8632812 -0.34375q0 -1.734375 0.953125 -2.5625q0.796875 -0.6875 1.953125 -0.6875q1.28125 0 2.09375 0.84375q0.828125 0.828125 0.828125 2.3125q0 1.203125 -0.359375 1.890625q-0.359375 0.6875 -1.0625 1.078125q-0.6875 0.375 -1.5 0.375q-1.296875 0 -2.109375 -0.828125q-0.796875 -0.84375 -0.796875 -2.421875zm1.078125 0q0 1.1875 0.515625 1.78125q0.53125 0.59375 1.3125 0.59375q0.796875 0 1.3125 -0.59375q0.515625 -0.59375 0.515625 -1.8125q0 -1.15625 -0.53125 -1.75q-0.515625 -0.59375 -1.296875 -0.59375q-0.78125 0 -1.3125 0.59375q-0.515625 0.578125 -0.515625 1.78125zm10.064453 3.109375l0 -0.921875q-0.734375 1.0625 -1.984375 1.0625q-0.546875 0 -1.03125 -0.203125q-0.46875 -0.21875 -0.703125 -0.53125q-0.234375 -0.328125 -0.328125 -0.796875q-0.0625 -0.296875 -0.0625 -0.984375l0 -3.84375l1.0625 0l0 3.453125q0 0.8125 0.0625 1.109375q0.09375 0.40625 0.40625 0.65625q0.328125 0.234375 0.8125 0.234375q0.46875 0 0.875 -0.234375q0.421875 -0.25 0.59375 -0.671875q0.1875 -0.421875 0.1875 -1.21875l0 -3.328125l1.046875 0l0 6.21875l-0.9375 0zm2.5800781 0l0 -6.21875l0.953125 0l0 0.9375q0.359375 -0.65625 0.65625 -0.859375q0.3125 -0.21875 0.6875 -0.21875q0.53125 0 1.078125 0.328125l-0.359375 0.984375q-0.390625 -0.234375 -0.765625 -0.234375q-0.359375 0 -0.640625 0.21875q-0.265625 0.203125 -0.375 0.578125q-0.1875 0.5625 -0.1875 1.21875l0 3.265625l-1.046875 0zm8.074219 -2.28125l1.03125 0.140625q-0.171875 1.0625 -0.875 1.671875q-0.703125 0.609375 -1.71875 0.609375q-1.28125 0 -2.0625 -0.828125q-0.765625 -0.84375 -0.765625 -2.40625q0 -1.0 0.328125 -1.75q0.34375 -0.765625 1.015625 -1.140625q0.6875 -0.375 1.5 -0.375q1.0 0 1.640625 0.515625q0.65625 0.5 0.84375 1.453125l-1.03125 0.15625q-0.140625 -0.625 -0.515625 -0.9375q-0.375 -0.328125 -0.90625 -0.328125q-0.796875 0 -1.296875 0.578125q-0.5 0.5625 -0.5 1.796875q0 1.265625 0.484375 1.828125q0.484375 0.5625 1.25 0.5625q0.625 0 1.03125 -0.375q0.421875 -0.375 0.546875 -1.171875zm6.1875 0.28125l1.09375 0.125q-0.25 0.953125 -0.953125 1.484375q-0.703125 0.53125 -1.78125 0.53125q-1.359375 0 -2.171875 -0.84375q-0.796875 -0.84375 -0.796875 -2.359375q0 -1.5625 0.8125 -2.421875q0.8125 -0.875 2.09375 -0.875q1.25 0 2.03125 0.84375q0.796875 0.84375 0.796875 2.390625q0 0.09375 0 0.28125l-4.640625 0q0.0625 1.03125 0.578125 1.578125q0.515625 0.53125 1.296875 0.53125q0.578125 0 0.984375 -0.296875q0.421875 -0.3125 0.65625 -0.96875zm-3.453125 -1.703125l3.46875 0q-0.0625 -0.796875 -0.390625 -1.1875q-0.515625 -0.609375 -1.3125 -0.609375q-0.734375 0 -1.234375 0.484375q-0.484375 0.484375 -0.53125 1.3125z" fill-rule="nonzero"/><path fill="#666666" d="m72.06381 295.36404q0 -1.734375 0.953125 -2.5625q0.796875 -0.6875 1.953125 -0.6875q1.28125 0 2.09375 0.84375q0.828125 0.828125 0.828125 2.3125q0 1.203125 -0.359375 1.890625q-0.359375 0.6875 -1.0625 1.078125q-0.6875 0.375 -1.5 0.375q-1.296875 0 -2.109375 -0.828125q-0.796875 -0.84375 -0.796875 -2.421875zm1.078125 0q0 1.1875 0.515625 1.78125q0.53125 0.59375 1.3125 0.59375q0.796875 0 1.3125 -0.59375q0.515625 -0.59375 0.515625 -1.8125q0 -1.15625 -0.53125 -1.75q-0.515625 -0.59375 -1.296875 -0.59375q-0.78125 0 -1.3125 0.59375q-0.515625 0.578125 -0.515625 1.78125zm6.236328 3.109375l0 -5.40625l-0.9375 0l0 -0.8125l0.9375 0l0 -0.671875q0 -0.625 0.109375 -0.921875q0.15625 -0.421875 0.53125 -0.671875q0.390625 -0.25 1.078125 -0.25q0.453125 0 0.984375 0.109375l-0.15625 0.90625q-0.328125 -0.046875 -0.625 -0.046875q-0.484375 0 -0.6875 0.203125q-0.1875 0.203125 -0.1875 0.765625l0 0.578125l1.21875 0l0 0.8125l-1.21875 0l0 5.40625l-1.046875 0zm8.513672 0l0 -7.578125l-2.828125 0l0 -1.015625l6.8125 0l0 1.015625l-2.84375 0l0 7.578125l-1.140625 0zm4.5566406 0l0 -6.21875l0.953125 0l0 0.9375q0.359375 -0.65625 0.65625 -0.859375q0.3125 -0.21875 0.6875 -0.21875q0.53125 0 1.078125 0.328125l-0.359375 0.984375q-0.390625 -0.234375 -0.765625 -0.234375q-0.359375 0 -0.640625 0.21875q-0.265625 0.203125 -0.375 0.578125q-0.1875 0.5625 -0.1875 1.21875l0 3.265625l-1.046875 0zm8.089844 0l0 -0.921875q-0.734375 1.0625 -1.984375 1.0625q-0.546875 0 -1.03125 -0.203125q-0.46875 -0.21875 -0.703125 -0.53125q-0.234375 -0.328125 -0.328125 -0.796875q-0.0625 -0.296875 -0.0625 -0.984375l0 -3.84375l1.0625 0l0 3.453125q0 0.8125 0.0625 1.109375q0.09375 0.40625 0.40625 0.65625q0.328125 0.234375 0.8125 0.234375q0.46875 0 0.875 -0.234375q0.421875 -0.25 0.59375 -0.671875q0.1875 -0.421875 0.1875 -1.21875l0 -3.328125l1.046875 0l0 6.21875l-0.9375 0zm4.892578 -0.9375l0.15625 0.921875q-0.453125 0.09375 -0.796875 0.09375q-0.578125 0 -0.890625 -0.171875q-0.3125 -0.1875 -0.453125 -0.484375q-0.125 -0.296875 -0.125 -1.25l0 -3.578125l-0.765625 0l0 -0.8125l0.765625 0l0 -1.546875l1.046875 -0.625l0 2.171875l1.0625 0l0 0.8125l-1.0625 0l0 3.640625q0 0.453125 0.046875 0.578125q0.0625 0.125 0.1875 0.203125q0.125 0.078125 0.359375 0.078125q0.1875 0 0.46875 -0.03125zm1.0371094 0.9375l0 -8.59375l1.046875 0l0 3.078125q0.734375 -0.84375 1.859375 -0.84375q0.703125 0 1.203125 0.28125q0.515625 0.265625 0.734375 0.75q0.21875 0.46875 0.21875 1.390625l0 3.9375l-1.046875 0l0 -3.9375q0 -0.796875 -0.34375 -1.15625q-0.34375 -0.359375 -0.96875 -0.359375q-0.46875 0 -0.890625 0.25q-0.40625 0.234375 -0.59375 0.65625q-0.171875 0.40625 -0.171875 1.140625l0 3.40625l-1.046875 0z" fill-rule="nonzero"/><path fill="#ffffff" d="m34.869343 85.387276l0 0c-1.1242867 -5.392639 2.5669785 -10.731026 9.507458 -13.749886c6.9404793 -3.0188599 15.912968 -3.1887512 23.1101 -0.4375763l0 0c2.549446 -3.1355057 7.2156754 -5.3003616 12.587242 -5.8397293c5.371567 -0.5393677 10.817566 0.61009216 14.690681 3.1007004l0 0c2.1717987 -2.8428574 6.436165 -4.7528877 11.279877 -5.0523224c4.843712 -0.29943466 9.581268 1.0541077 12.531532 3.5803146l0 0c3.9236755 -3.0134163 10.166336 -4.2821884 16.026749 -3.2573166c5.8604126 1.0248718 10.286011 4.159317 11.361786 8.047043l0 0c4.8071594 0.8558197 8.811432 3.031433 10.978226 5.9647293c2.1667938 2.9332962 2.2835693 6.336525 0.3201294 9.330406l0 0c4.733658 4.021103 5.840973 9.379173 2.9087372 14.0746765c-2.932251 4.695503 -9.4635315 8.022995 -17.156479 8.740707c-0.054214478 4.4068985 -3.7572021 8.450615 -9.681656 10.572525c-5.9244537 2.12191 -13.145248 1.9906693 -18.879189 -0.34313965c-2.4423447 5.278023 -9.31675 9.161545 -17.653214 9.972733c-8.336456 0.81118774 -16.640495 -1.5953674 -21.324463 -6.179947c-5.7415695 2.2597504 -12.63097 2.9107208 -19.114098 1.8060455c-6.4831276 -1.1046753 -12.013874 -3.871933 -15.344616 -7.677536l0 0c-5.867161 0.44812012 -11.539892 -1.5359039 -14.202841 -4.967407c-2.6629486 -3.4315033 -1.7492352 -7.580002 2.2876682 -10.386612l0 0c-5.2336597 -2.0105133 -7.904188 -6.0000534 -6.619009 -9.888222c1.2851772 -3.888176 6.2348347 -6.7938995 12.26792 -7.2019653z" fill-rule="evenodd"/><path fill="#000000" fill-opacity="0.0" d="m29.104454 102.6853l0 0c2.46978 0.9487686 5.322956 1.379158 8.176437 1.2333679m3.7374535 14.120995c1.2271004 -0.09372711 2.4298973 -0.29219818 3.577362 -0.5902939m30.879635 6.4615326c-0.8630676 -0.84474945 -1.5856705 -1.7474442 -2.1554947 -2.6926956m41.134666 -1.1002426l0 0c0.44527435 -0.962265 0.7337723 -1.9526367 0.86068726 -2.954605m27.699081 -7.274414c0.057724 -4.691826 -4.0251923 -8.987701 -10.49501 -11.042435m24.742615 -11.772453c-1.0477753 1.5976562 -2.6473083 3.0149078 -4.6731873 4.140648m-6.6241913 -19.436203l0 0c0.17852783 0.6451645 0.26113892 1.3000336 0.24671936 1.9555206m-27.634789 -6.745056l0 0c-0.97875977 0.75170135 -1.7851334 1.591713 -2.3940048 2.4938812m-21.417633 -1.0222015l0 0c-0.5215988 0.68276215 -0.91108704 1.4052429 -1.1595078 2.150795m-26.118813 0.588295l0 0c1.5229111 0.5821457 2.9318085 1.2828217 4.1957397 2.0866318m-36.812878 12.100906l0 0c0.15495682 0.743248 0.39979553 1.4773254 0.7322273 2.1953735" fill-rule="evenodd"/><path stroke="#595959" stroke-width="1.0" stroke-linejoin="round" stroke-linecap="butt" d="m34.869343 85.387276l0 0c-1.1242867 -5.392639 2.5669785 -10.731026 9.507458 -13.749886c6.9404793 -3.0188599 15.912968 -3.1887512 23.1101 -0.4375763l0 0c2.549446 -3.1355057 7.2156754 -5.3003616 12.587242 -5.8397293c5.371567 -0.5393677 10.817566 0.61009216 14.690681 3.1007004l0 0c2.1717987 -2.8428574 6.436165 -4.7528877 11.279877 -5.0523224c4.843712 -0.29943466 9.581268 1.0541077 12.531532 3.5803146l0 0c3.9236755 -3.0134163 10.166336 -4.2821884 16.026749 -3.2573166c5.8604126 1.0248718 10.286011 4.159317 11.361786 8.047043l0 0c4.8071594 0.8558197 8.811432 3.031433 10.978226 5.9647293c2.1667938 2.9332962 2.2835693 6.336525 0.3201294 9.330406l0 0c4.733658 4.021103 5.840973 9.379173 2.9087372 14.0746765c-2.932251 4.695503 -9.4635315 8.022995 -17.156479 8.740707c-0.054214478 4.4068985 -3.7572021 8.450615 -9.681656 10.572525c-5.9244537 2.12191 -13.145248 1.9906693 -18.879189 -0.34313965c-2.4423447 5.278023 -9.31675 9.161545 -17.653214 9.972733c-8.336456 0.81118774 -16.640495 -1.5953674 -21.324463 -6.179947c-5.7415695 2.2597504 -12.63097 2.9107208 -19.114098 1.8060455c-6.4831276 -1.1046753 -12.013874 -3.871933 -15.344616 -7.677536l0 0c-5.867161 0.44812012 -11.539892 -1.5359039 -14.202841 -4.967407c-2.6629486 -3.4315033 -1.7492352 -7.580002 2.2876682 -10.386612l0 0c-5.2336597 -2.0105133 -7.904188 -6.0000534 -6.619009 -9.888222c1.2851772 -3.888176 6.2348347 -6.7938995 12.26792 -7.2019653z" fill-rule="evenodd"/><path stroke="#595959" stroke-width="1.0" stroke-linejoin="round" stroke-linecap="butt" d="m29.104454 102.6853l0 0c2.46978 0.9487686 5.322956 1.379158 8.176437 1.2333679m3.7374535 14.120995c1.2271004 -0.09372711 2.4298973 -0.29219818 3.577362 -0.5902939m30.879635 6.4615326c-0.8630676 -0.84474945 -1.5856705 -1.7474442 -2.1554947 -2.6926956m41.134666 -1.1002426l0 0c0.44527435 -0.962265 0.7337723 -1.9526367 0.86068726 -2.954605m27.699081 -7.274414c0.057724 -4.691826 -4.0251923 -8.987701 -10.49501 -11.042435m24.742615 -11.772453c-1.0477753 1.5976562 -2.6473083 3.0149078 -4.6731873 4.140648m-6.6241913 -19.436203l0 0c0.17852783 0.6451645 0.26113892 1.3000336 0.24671936 1.9555206m-27.634789 -6.745056l0 0c-0.97875977 0.75170135 -1.7851334 1.591713 -2.3940048 2.4938812m-21.417633 -1.0222015l0 0c-0.5215988 0.68276215 -0.91108704 1.4052429 -1.1595078 2.150795m-26.118813 0.588295l0 0c1.5229111 0.5821457 2.9318085 1.2828217 4.1957397 2.0866318m-36.812878 12.100906l0 0c0.15495682 0.743248 0.39979553 1.4773254 0.7322273 2.1953735" fill-rule="evenodd"/><path fill="#000000" d="m58.92276 100.886696l0 -11.453125l1.5625 0l6.015625 8.984375l0 -8.984375l1.453125 0l0 11.453125l-1.5625 0l-6.015625 -9.0l0 9.0l-1.453125 0zm17.070312 -2.671875l1.453125 0.171875q-0.34375 1.28125 -1.28125 1.984375q-0.921875 0.703125 -2.359375 0.703125q-1.828125 0 -2.890625 -1.125q-1.0625 -1.125 -1.0625 -3.140625q0 -2.09375 1.078125 -3.25q1.078125 -1.15625 2.796875 -1.15625q1.65625 0 2.703125 1.140625q1.0625 1.125 1.0625 3.171875q0 0.125 0 0.375l-6.1875 0q0.078125 1.375 0.765625 2.109375q0.703125 0.71875 1.734375 0.71875q0.78125 0 1.328125 -0.40625q0.546875 -0.40625 0.859375 -1.296875zm-4.609375 -2.28125l4.625 0q-0.09375 -1.046875 -0.53125 -1.5625q-0.671875 -0.8125 -1.734375 -0.8125q-0.96875 0 -1.640625 0.65625q-0.65625 0.640625 -0.71875 1.71875zm10.8984375 3.6875l0.203125 1.25q-0.59375 0.125 -1.0625 0.125q-0.765625 0 -1.1875 -0.234375q-0.421875 -0.25 -0.59375 -0.640625q-0.171875 -0.40625 -0.171875 -1.671875l0 -4.765625l-1.03125 0l0 -1.09375l1.03125 0l0 -2.0625l1.40625 -0.84375l0 2.90625l1.40625 0l0 1.09375l-1.40625 0l0 4.84375q0 0.609375 0.0625 0.78125q0.078125 0.171875 0.25 0.28125q0.171875 0.09375 0.484375 0.09375q0.234375 0 0.609375 -0.0625zm2.9140625 1.265625l-2.546875 -8.296875l1.453125 0l1.328125 4.78125l0.484375 1.78125q0.03125 -0.125 0.4375 -1.703125l1.3125 -4.859375l1.453125 0l1.234375 4.8125l0.421875 1.578125l0.46875 -1.59375l1.421875 -4.796875l1.375 0l-2.59375 8.296875l-1.46875 0l-1.3125 -4.96875l-0.328125 -1.421875l-1.671875 6.390625l-1.46875 0zm9.4921875 -4.15625q0 -2.296875 1.28125 -3.40625q1.078125 -0.921875 2.609375 -0.921875q1.71875 0 2.796875 1.125q1.09375 1.109375 1.09375 3.09375q0 1.59375 -0.484375 2.515625q-0.484375 0.921875 -1.40625 1.4375q-0.90625 0.5 -2.0 0.5q-1.734375 0 -2.8125 -1.109375q-1.078125 -1.125 -1.078125 -3.234375zm1.453125 0q0 1.59375 0.6875 2.390625q0.703125 0.796875 1.75 0.796875q1.046875 0 1.734375 -0.796875q0.703125 -0.796875 0.703125 -2.4375q0 -1.53125 -0.703125 -2.328125q-0.6875 -0.796875 -1.734375 -0.796875q-1.046875 0 -1.75 0.796875q-0.6875 0.78125 -0.6875 2.375zm7.9609375 4.15625l0 -8.296875l1.265625 0l0 1.25q0.484375 -0.875 0.890625 -1.15625q0.40625 -0.28125 0.90625 -0.28125q0.703125 0 1.4375 0.453125l-0.484375 1.296875q-0.515625 -0.296875 -1.03125 -0.296875q-0.453125 0 -0.828125 0.28125q-0.359375 0.265625 -0.515625 0.765625q-0.234375 0.75 -0.234375 1.640625l0 4.34375l-1.40625 0zm5.34375 0l0 -11.453125l1.40625 0l0 6.53125l3.328125 -3.375l1.828125 0l-3.171875 3.078125l3.484375 5.21875l-1.734375 0l-2.734375 -4.25l-1.0 0.953125l0 3.296875l-1.40625 0z" fill-rule="nonzero"/><path fill="#000000" fill-opacity="0.0" d="m92.001785 129.93071l0 82.77165" fill-rule="evenodd"/><path stroke="#595959" stroke-width="2.0" stroke-linejoin="round" stroke-linecap="butt" d="m92.001785 129.93071l0 70.77165" fill-rule="evenodd"/><path fill="#595959" stroke="#595959" stroke-width="2.0" stroke-linecap="butt" d="m88.69832 200.70236l3.3034668 9.076202l3.3034668 -9.076202z" fill-rule="evenodd"/><path fill="#000000" fill-opacity="0.0" d="m92.00131 315.6404l0 29.57483" fill-rule="evenodd"/><path stroke="#595959" stroke-width="2.0" stroke-linejoin="round" stroke-linecap="butt" d="m92.00131 315.6404l0 17.574799" fill-rule="evenodd"/><path fill="#595959" stroke="#595959" stroke-width="2.0" stroke-linecap="butt" d="m88.697845 333.2152l3.3034668 9.076202l3.3034668 -9.076202z" fill-rule="evenodd"/><path fill="#b6d7a8" d="m24.55251 352.12628l0 0c0 -3.8095398 3.0882397 -6.897766 6.8977757 -6.897766l121.10208 0c1.8294067 0 3.5838776 0.7267151 4.877472 2.0202942c1.2935791 1.2936096 2.0203094 3.0480652 2.0203094 4.877472l0 27.590271c0 3.8095398 -3.0882416 6.8977966 -6.8977814 6.8977966l-121.10208 0c-3.809536 0 -6.8977757 -3.0882568 -6.8977757 -6.8977966z" fill-rule="evenodd"/><path stroke="#595959" stroke-width="1.0" stroke-linejoin="round" stroke-linecap="butt" d="m24.55251 352.12628l0 0c0 -3.8095398 3.0882397 -6.897766 6.8977757 -6.897766l121.10208 0c1.8294067 0 3.5838776 0.7267151 4.877472 2.0202942c1.2935791 1.2936096 2.0203094 3.0480652 2.0203094 4.877472l0 27.590271c0 3.8095398 -3.0882416 6.8977966 -6.8977814 6.8977966l-121.10208 0c-3.809536 0 -6.8977757 -3.0882568 -6.8977757 -6.8977966z" fill-rule="evenodd"/><path fill="#000000" d="m51.607025 361.17456l3.21875 0q0.796875 0 1.46875 0.359375q0.6875 0.359375 1.09375 1.015625q0.40625 0.640625 0.40625 1.453125q0 0.8125 -0.40625 1.46875q-0.40625 0.640625 -1.09375 1.0q-0.671875 0.359375 -1.46875 0.359375l-2.078125 0l0 3.890625l-1.140625 0l0 -9.546875zm3.25 4.578125q0.53125 0 0.9375 -0.25q0.40625 -0.265625 0.625 -0.65625q0.234375 -0.40625 0.234375 -0.84375q0 -0.4375 -0.234375 -0.828125q-0.21875 -0.40625 -0.625 -0.65625q-0.40625 -0.265625 -0.9375 -0.265625l-2.109375 0l0 3.5l2.109375 0zm6.113434 5.1875q-0.75 0 -1.34375 -0.296875q-0.578125 -0.296875 -0.90625 -0.8125q-0.3125 -0.515625 -0.3125 -1.15625q0 -1.078125 0.8125 -1.6875q0.8125 -0.609375 2.046875 -0.609375q0.625 0 1.140625 0.140625q0.53125 0.125 0.8125 0.296875l0 -0.40625q0 -0.765625 -0.53125 -1.21875q-0.53125 -0.46875 -1.34375 -0.46875q-0.5625 0 -1.046875 0.25q-0.484375 0.25 -0.765625 0.6875l-0.859375 -0.640625q0.40625 -0.609375 1.109375 -0.953125q0.703125 -0.359375 1.5625 -0.359375q1.375 0 2.15625 0.734375q0.796875 0.71875 0.796875 1.96875l0 4.3125l-1.078125 0l0 -0.96875l-0.046875 0q-0.296875 0.484375 -0.890625 0.84375q-0.578125 0.34375 -1.3125 0.34375zm0.109375 -1.0q0.5625 0 1.046875 -0.296875q0.5 -0.296875 0.796875 -0.78125q0.296875 -0.5 0.296875 -1.09375q-0.328125 -0.203125 -0.796875 -0.328125q-0.453125 -0.140625 -0.984375 -0.140625q-0.921875 0 -1.40625 0.390625q-0.46875 0.375 -0.46875 0.984375q0 0.5625 0.421875 0.921875q0.4375 0.34375 1.09375 0.34375zm7.713669 3.875q-1.203125 0 -1.984375 -0.5625q-0.78125 -0.5625 -1.046875 -1.34375l1.046875 -0.4375q0.203125 0.578125 0.734375 0.9375q0.53125 0.375 1.25 0.375q1.046875 0 1.625 -0.609375q0.578125 -0.609375 0.578125 -1.734375l0 -0.765625l-0.046875 0q-0.328125 0.53125 -0.9375 0.859375q-0.609375 0.328125 -1.375 0.328125q-0.890625 0 -1.625 -0.453125q-0.71875 -0.453125 -1.140625 -1.265625q-0.421875 -0.828125 -0.421875 -1.859375q0 -1.03125 0.421875 -1.84375q0.421875 -0.828125 1.140625 -1.28125q0.734375 -0.453125 1.625 -0.453125q0.765625 0 1.375 0.328125q0.609375 0.328125 0.9375 0.859375l0.046875 0l0 -0.96875l1.09375 0l0 6.53125q0 1.640625 -0.921875 2.5q-0.90625 0.859375 -2.375 0.859375zm0 -3.984375q0.609375 0 1.109375 -0.296875q0.5 -0.3125 0.796875 -0.890625q0.296875 -0.578125 0.296875 -1.359375q0 -0.796875 -0.296875 -1.375q-0.296875 -0.578125 -0.796875 -0.875q-0.5 -0.296875 -1.109375 -0.296875q-0.609375 0 -1.125 0.3125q-0.5 0.296875 -0.8125 0.875q-0.296875 0.578125 -0.296875 1.359375q0 0.78125 0.296875 1.359375q0.3125 0.578125 0.8125 0.890625q0.515625 0.296875 1.125 0.296875zm5.6287384 -7.15625q-0.328125 0 -0.578125 -0.234375q-0.234375 -0.25 -0.234375 -0.578125q0 -0.34375 0.234375 -0.578125q0.25 -0.234375 0.578125 -0.234375q0.359375 0 0.578125 0.234375q0.234375 0.234375 0.234375 0.578125q0 0.328125 -0.234375 0.578125q-0.21875 0.234375 -0.578125 0.234375zm-0.546875 1.25l1.125 0l0 6.796875l-1.125 0l0 -6.796875zm2.902771 0l1.078125 0l0 1.0l0.046875 0q0.28125 -0.5 0.890625 -0.859375q0.625 -0.359375 1.3125 -0.359375q1.21875 0 1.859375 0.71875q0.65625 0.71875 0.65625 1.9375l0 4.359375l-1.125 0l0 -4.1875q0 -0.9375 -0.453125 -1.359375q-0.453125 -0.4375 -1.25 -0.4375q-0.546875 0 -0.984375 0.3125q-0.421875 0.296875 -0.671875 0.796875q-0.234375 0.5 -0.234375 1.046875l0 3.828125l-1.125 0l0 -6.796875zm10.39476 9.890625q-1.203125 0 -1.984375 -0.5625q-0.78125 -0.5625 -1.046875 -1.34375l1.046875 -0.4375q0.203125 0.578125 0.734375 0.9375q0.53125 0.375 1.25 0.375q1.046875 0 1.625 -0.609375q0.578125 -0.609375 0.578125 -1.734375l0 -0.765625l-0.046875 0q-0.328125 0.53125 -0.9375 0.859375q-0.609375 0.328125 -1.375 0.328125q-0.890625 0 -1.625 -0.453125q-0.71875 -0.453125 -1.140625 -1.265625q-0.421875 -0.828125 -0.421875 -1.859375q0 -1.03125 0.421875 -1.84375q0.421875 -0.828125 1.140625 -1.28125q0.734375 -0.453125 1.625 -0.453125q0.765625 0 1.375 0.328125q0.609375 0.328125 0.9375 0.859375l0.046875 0l0 -0.96875l1.09375 0l0 6.53125q0 1.640625 -0.921875 2.5q-0.90625 0.859375 -2.375 0.859375zm0 -3.984375q0.609375 0 1.109375 -0.296875q0.5 -0.3125 0.796875 -0.890625q0.296875 -0.578125 0.296875 -1.359375q0 -0.796875 -0.296875 -1.375q-0.296875 -0.578125 -0.796875 -0.875q-0.5 -0.296875 -1.109375 -0.296875q-0.609375 0 -1.125 0.3125q-0.5 0.296875 -0.8125 0.875q-0.296875 0.578125 -0.296875 1.359375q0 0.78125 0.296875 1.359375q0.3125 0.578125 0.8125 0.890625q0.515625 0.296875 1.125 0.296875zm7.8631134 1.109375q-0.71875 0 -1.390625 -0.296875q-0.671875 -0.3125 -1.203125 -0.890625q-0.515625 -0.578125 -0.734375 -1.40625l1.078125 -0.4375q0.21875 0.859375 0.828125 1.40625q0.625 0.546875 1.453125 0.546875q0.8125 0 1.390625 -0.453125q0.578125 -0.453125 0.578125 -1.21875q0 -0.671875 -0.484375 -1.09375q-0.484375 -0.4375 -1.59375 -0.8125l-0.609375 -0.21875q-1.0 -0.359375 -1.640625 -0.9375q-0.640625 -0.59375 -0.640625 -1.625q0 -0.6875 0.359375 -1.265625q0.375 -0.578125 1.046875 -0.921875q0.671875 -0.34375 1.5 -0.34375q0.8125 0 1.421875 0.3125q0.625 0.296875 0.984375 0.734375q0.375 0.4375 0.515625 0.859375l-1.046875 0.453125q-0.15625 -0.484375 -0.625 -0.875q-0.46875 -0.40625 -1.25 -0.40625q-0.71875 0 -1.25 0.421875q-0.515625 0.40625 -0.515625 1.03125q0 0.5625 0.4375 0.921875q0.4375 0.34375 1.328125 0.640625l0.640625 0.21875q1.203125 0.4375 1.875 1.109375q0.6875 0.65625 0.6875 1.78125q0 0.921875 -0.46875 1.546875q-0.46875 0.625 -1.203125 0.921875q-0.71875 0.296875 -1.46875 0.296875zm7.7247467 0q-1.0 0 -1.796875 -0.484375q-0.796875 -0.484375 -1.25 -1.3125q-0.4375 -0.828125 -0.4375 -1.828125q0 -0.984375 0.4375 -1.8125q0.453125 -0.828125 1.25 -1.3125q0.796875 -0.484375 1.796875 -0.484375q1.0 0 1.796875 0.484375q0.8125 0.484375 1.25 1.3125q0.453125 0.828125 0.453125 1.8125q0 1.0 -0.453125 1.828125q-0.4375 0.828125 -1.25 1.3125q-0.796875 0.484375 -1.796875 0.484375zm0 -1.03125q0.625 0 1.15625 -0.3125q0.546875 -0.3125 0.875 -0.890625q0.328125 -0.59375 0.328125 -1.390625q0 -0.78125 -0.328125 -1.359375q-0.328125 -0.59375 -0.875 -0.90625q-0.53125 -0.3125 -1.15625 -0.3125q-0.625 0 -1.171875 0.3125q-0.546875 0.3125 -0.875 0.90625q-0.328125 0.578125 -0.328125 1.359375q0 0.796875 0.328125 1.390625q0.328125 0.578125 0.875 0.890625q0.546875 0.3125 1.171875 0.3125zm7.2206116 1.03125q-1.234375 0 -1.890625 -0.71875q-0.640625 -0.71875 -0.640625 -2.015625l0 -4.28125l1.140625 0l0 4.109375q0 0.96875 0.4375 1.421875q0.4375 0.453125 1.1875 0.453125q0.578125 0 1.015625 -0.296875q0.453125 -0.3125 0.6875 -0.796875q0.25 -0.5 0.25 -1.046875l0 -3.84375l1.140625 0l0 6.796875l-1.078125 0l0 -0.984375l-0.0625 0q-0.28125 0.5 -0.890625 0.859375q-0.609375 0.34375 -1.296875 0.34375zm5.008301 -7.015625l1.078125 0l0 1.09375l0.046875 0q0.203125 -0.5625 0.765625 -0.921875q0.578125 -0.375 1.203125 -0.375q0.46875 0 0.8125 0.140625l0 1.21875q-0.4375 -0.203125 -0.96875 -0.203125q-0.484375 0 -0.90625 0.28125q-0.40625 0.265625 -0.65625 0.75q-0.25 0.46875 -0.25 1.015625l0 3.796875l-1.125 0l0 -6.796875zm7.6761627 7.015625q-0.984375 0 -1.78125 -0.46875q-0.78125 -0.484375 -1.21875 -1.296875q-0.4375 -0.828125 -0.4375 -1.859375q0 -1.015625 0.4375 -1.84375q0.4375 -0.828125 1.21875 -1.296875q0.796875 -0.46875 1.78125 -0.46875q1.109375 0 1.859375 0.515625q0.75 0.515625 1.0625 1.375l-1.015625 0.421875q-0.25 -0.625 -0.75 -0.953125q-0.5 -0.328125 -1.21875 -0.328125q-0.59375 0 -1.125 0.328125q-0.515625 0.328125 -0.828125 0.921875q-0.3125 0.578125 -0.3125 1.328125q0 0.765625 0.3125 1.359375q0.3125 0.578125 0.828125 0.90625q0.53125 0.328125 1.125 0.328125q0.71875 0 1.234375 -0.328125q0.53125 -0.34375 0.78125 -0.953125l1.015625 0.421875q-0.34375 0.84375 -1.109375 1.375q-0.765625 0.515625 -1.859375 0.515625zm7.1479645 0q-0.96875 0 -1.75 -0.46875q-0.765625 -0.46875 -1.203125 -1.28125q-0.421875 -0.828125 -0.421875 -1.859375q0 -0.96875 0.40625 -1.796875q0.40625 -0.84375 1.15625 -1.328125q0.75 -0.5 1.71875 -0.5q1.0 0 1.734375 0.453125q0.734375 0.4375 1.125 1.234375q0.40625 0.78125 0.40625 1.796875q0 0.15625 -0.03125 0.34375l-5.390625 0q0.046875 0.78125 0.375 1.3125q0.328125 0.53125 0.84375 0.796875q0.515625 0.265625 1.078125 0.265625q1.328125 0 2.015625 -1.234375l0.953125 0.46875q-0.421875 0.8125 -1.1875 1.3125q-0.75 0.484375 -1.828125 0.484375zm1.96875 -4.34375q-0.03125 -0.421875 -0.25 -0.84375q-0.203125 -0.421875 -0.65625 -0.71875q-0.453125 -0.296875 -1.15625 -0.296875q-0.796875 0 -1.359375 0.515625q-0.546875 0.515625 -0.734375 1.34375l4.15625 0z" fill-rule="nonzero"/><path fill="#b6d7a8" d="m24.555073 157.55804l0 0c0 -3.8095398 3.0882397 -6.897766 6.8977757 -6.897766l121.10208 0c1.8294067 0 3.5838776 0.7267151 4.877472 2.0203094c1.2935791 1.2935791 2.0203094 3.04805 2.0203094 4.8774567l0 27.590271c0 3.8095398 -3.0882416 6.8977814 -6.8977814 6.8977814l-121.10208 0c-3.809536 0 -6.8977757 -3.0882416 -6.8977757 -6.8977814z" fill-rule="evenodd"/><path stroke="#595959" stroke-width="1.0" stroke-linejoin="round" stroke-linecap="butt" d="m24.555073 157.55804l0 0c0 -3.8095398 3.0882397 -6.897766 6.8977757 -6.897766l121.10208 0c1.8294067 0 3.5838776 0.7267151 4.877472 2.0203094c1.2935791 1.2935791 2.0203094 3.04805 2.0203094 4.8774567l0 27.590271c0 3.8095398 -3.0882416 6.8977814 -6.8977814 6.8977814l-121.10208 0c-3.809536 0 -6.8977757 -3.0882416 -6.8977757 -6.8977814z" fill-rule="evenodd"/><path fill="#000000" d="m42.579887 166.60631l3.234375 0q0.78125 0 1.453125 0.359375q0.6875 0.359375 1.09375 1.015625q0.40625 0.640625 0.40625 1.453125q0 0.671875 -0.296875 1.25q-0.296875 0.5625 -0.828125 0.953125q-0.53125 0.390625 -1.171875 0.515625l-0.015625 0.046875l2.6875 3.90625l0 0.046875l-1.328125 0l-2.609375 -3.890625l-1.484375 0l0 3.890625l-1.140625 0l0 -9.546875zm3.15625 4.609375q0.5 0 0.921875 -0.21875q0.4375 -0.234375 0.703125 -0.640625q0.265625 -0.40625 0.265625 -0.921875q0 -0.4375 -0.234375 -0.828125q-0.21875 -0.40625 -0.625 -0.65625q-0.40625 -0.265625 -0.9375 -0.265625l-2.109375 0l0 3.53125l2.015625 0zm7.3175507 5.15625q-0.96875 0 -1.75 -0.46875q-0.765625 -0.46875 -1.203125 -1.28125q-0.421875 -0.828125 -0.421875 -1.859375q0 -0.96875 0.40625 -1.796875q0.40625 -0.84375 1.15625 -1.328125q0.75 -0.5 1.71875 -0.5q1.0 0 1.734375 0.453125q0.734375 0.4375 1.125 1.234375q0.40625 0.78125 0.40625 1.796875q0 0.15625 -0.03125 0.34375l-5.390625 0q0.046875 0.78125 0.375 1.3125q0.328125 0.53125 0.84375 0.796875q0.515625 0.265625 1.078125 0.265625q1.328125 0 2.015625 -1.234375l0.953125 0.46875q-0.421875 0.8125 -1.1875 1.3125q-0.75 0.484375 -1.828125 0.484375zm1.96875 -4.34375q-0.03125 -0.421875 -0.25 -0.84375q-0.203125 -0.421875 -0.65625 -0.71875q-0.453125 -0.296875 -1.15625 -0.296875q-0.796875 0 -1.359375 0.515625q-0.546875 0.515625 -0.734375 1.34375l4.15625 0zm2.519333 -2.671875l1.078125 0l0 1.0l0.046875 0q0.296875 -0.515625 0.875 -0.859375q0.59375 -0.359375 1.25 -0.359375q0.75 0 1.296875 0.359375q0.546875 0.359375 0.796875 0.96875q0.359375 -0.609375 0.953125 -0.96875q0.59375 -0.359375 1.375 -0.359375q1.171875 0 1.765625 0.71875q0.59375 0.71875 0.59375 1.9375l0 4.359375l-1.125 0l0 -4.1875q0 -0.9375 -0.390625 -1.359375q-0.375 -0.4375 -1.140625 -0.4375q-0.5 0 -0.921875 0.296875q-0.40625 0.296875 -0.640625 0.796875q-0.234375 0.484375 -0.234375 1.046875l0 3.84375l-1.125 0l0 -4.171875q0 -0.953125 -0.390625 -1.375q-0.390625 -0.4375 -1.140625 -0.4375q-0.5 0 -0.921875 0.296875q-0.40625 0.296875 -0.640625 0.796875q-0.234375 0.5 -0.234375 1.078125l0 3.8125l-1.125 0l0 -6.796875zm14.8004 7.015625q-1.0 0 -1.796875 -0.484375q-0.796875 -0.484375 -1.25 -1.3125q-0.4375 -0.828125 -0.4375 -1.828125q0 -0.984375 0.4375 -1.8125q0.453125 -0.828125 1.25 -1.3125q0.796875 -0.484375 1.796875 -0.484375q1.0 0 1.796875 0.484375q0.8125 0.484375 1.25 1.3125q0.453125 0.828125 0.453125 1.8125q0 1.0 -0.453125 1.828125q-0.4375 0.828125 -1.25 1.3125q-0.796875 0.484375 -1.796875 0.484375zm0 -1.03125q0.625 0 1.15625 -0.3125q0.546875 -0.3125 0.875 -0.890625q0.328125 -0.59375 0.328125 -1.390625q0 -0.78125 -0.328125 -1.359375q-0.328125 -0.59375 -0.875 -0.90625q-0.53125 -0.3125 -1.15625 -0.3125q-0.625 0 -1.171875 0.3125q-0.546875 0.3125 -0.875 0.90625q-0.328125 0.578125 -0.328125 1.359375q0 0.796875 0.328125 1.390625q0.328125 0.578125 0.875 0.890625q0.546875 0.3125 1.171875 0.3125zm7.2279053 0.921875q-0.421875 0 -0.78125 -0.125q-0.34375 -0.140625 -0.578125 -0.375q-0.53125 -0.5 -0.53125 -1.390625l0 -3.984375l-1.1875 0l0 -1.03125l1.1875 0l0 -1.921875l1.125 0l0 1.921875l1.671875 0l0 1.03125l-1.671875 0l0 3.703125q0 0.5625 0.21875 0.828125q0.25 0.28125 0.734375 0.28125q0.40625 0 0.75 -0.21875l0 1.109375q-0.203125 0.09375 -0.421875 0.125q-0.203125 0.046875 -0.515625 0.046875zm4.9909973 0.109375q-0.96875 0 -1.75 -0.46875q-0.765625 -0.46875 -1.203125 -1.28125q-0.421875 -0.828125 -0.421875 -1.859375q0 -0.96875 0.40625 -1.796875q0.40625 -0.84375 1.15625 -1.328125q0.75 -0.5 1.71875 -0.5q1.0 0 1.734375 0.453125q0.734375 0.4375 1.125 1.234375q0.40625 0.78125 0.40625 1.796875q0 0.15625 -0.03125 0.34375l-5.390625 0q0.046875 0.78125 0.375 1.3125q0.328125 0.53125 0.84375 0.796875q0.515625 0.265625 1.078125 0.265625q1.328125 0 2.015625 -1.234375l0.953125 0.46875q-0.421875 0.8125 -1.1875 1.3125q-0.75 0.484375 -1.828125 0.484375zm1.96875 -4.34375q-0.03125 -0.421875 -0.25 -0.84375q-0.203125 -0.421875 -0.65625 -0.71875q-0.453125 -0.296875 -1.15625 -0.296875q-0.796875 0 -1.359375 0.515625q-0.546875 0.515625 -0.734375 1.34375l4.15625 0zm2.738083 -5.421875l1.640625 0l3.046875 7.828125l0.046875 0l3.046875 -7.828125l1.625 0l0 9.546875l-1.109375 0l0 -6.0625l0.046875 -1.8125l-0.046875 0l-3.125 7.875l-0.9375 0l-3.109375 -7.875l-0.0625 0l0.0625 1.8125l0 6.0625l-1.125 0l0 -9.546875zm14.205658 9.765625q-0.96875 0 -1.75 -0.46875q-0.765625 -0.46875 -1.203125 -1.28125q-0.421875 -0.828125 -0.421875 -1.859375q0 -0.96875 0.40625 -1.796875q0.40625 -0.84375 1.15625 -1.328125q0.75 -0.5 1.71875 -0.5q1.0 0 1.734375 0.453125q0.734375 0.4375 1.125 1.234375q0.40625 0.78125 0.40625 1.796875q0 0.15625 -0.03125 0.34375l-5.390625 0q0.046875 0.78125 0.375 1.3125q0.328125 0.53125 0.84375 0.796875q0.515625 0.265625 1.078125 0.265625q1.328125 0 2.015625 -1.234375l0.953125 0.46875q-0.421875 0.8125 -1.1875 1.3125q-0.75 0.484375 -1.828125 0.484375zm1.96875 -4.34375q-0.03125 -0.421875 -0.25 -0.84375q-0.203125 -0.421875 -0.65625 -0.71875q-0.453125 -0.296875 -1.15625 -0.296875q-0.796875 0 -1.359375 0.515625q-0.546875 0.515625 -0.734375 1.34375l4.15625 0zm5.4766235 4.34375q-0.921875 0 -1.671875 -0.46875q-0.734375 -0.46875 -1.15625 -1.28125q-0.421875 -0.828125 -0.421875 -1.875q0 -1.015625 0.421875 -1.84375q0.421875 -0.828125 1.15625 -1.296875q0.75 -0.46875 1.671875 -0.46875q0.765625 0 1.375 0.359375q0.625 0.359375 0.9375 0.875l0.0625 0l-0.0625 -0.953125l0 -2.8125l1.140625 0l0 9.546875l-1.078125 0l0 -1.0l-0.0625 0q-0.3125 0.5 -0.9375 0.859375q-0.609375 0.359375 -1.375 0.359375zm0.125 -1.03125q0.59375 0 1.109375 -0.3125q0.515625 -0.328125 0.828125 -0.90625q0.3125 -0.59375 0.3125 -1.375q0 -0.765625 -0.3125 -1.34375q-0.3125 -0.59375 -0.828125 -0.90625q-0.515625 -0.328125 -1.109375 -0.328125q-0.59375 0 -1.125 0.328125q-0.515625 0.3125 -0.828125 0.90625q-0.3125 0.59375 -0.3125 1.34375q0 0.765625 0.3125 1.359375q0.3125 0.59375 0.828125 0.921875q0.53125 0.3125 1.125 0.3125zm5.6641235 -7.234375q-0.328125 0 -0.578125 -0.234375q-0.234375 -0.25 -0.234375 -0.578125q0 -0.34375 0.234375 -0.578125q0.25 -0.234375 0.578125 -0.234375q0.359375 0 0.578125 0.234375q0.234375 0.234375 0.234375 0.578125q0 0.328125 -0.234375 0.578125q-0.21875 0.234375 -0.578125 0.234375zm-0.546875 1.25l1.125 0l0 6.796875l-1.125 0l0 -6.796875zm5.0079803 7.015625q-0.75 0 -1.34375 -0.296875q-0.578125 -0.296875 -0.90625 -0.8125q-0.3125 -0.515625 -0.3125 -1.15625q0 -1.078125 0.8125 -1.6875q0.8125 -0.609375 2.046875 -0.609375q0.625 0 1.140625 0.140625q0.53125 0.125 0.8125 0.296875l0 -0.40625q0 -0.765625 -0.53125 -1.21875q-0.53125 -0.46875 -1.34375 -0.46875q-0.5625 0 -1.046875 0.25q-0.484375 0.25 -0.765625 0.6875l-0.859375 -0.640625q0.40625 -0.609375 1.109375 -0.953125q0.703125 -0.359375 1.5625 -0.359375q1.375 0 2.15625 0.734375q0.796875 0.71875 0.796875 1.96875l0 4.3125l-1.078125 0l0 -0.96875l-0.046875 0q-0.296875 0.484375 -0.890625 0.84375q-0.578125 0.34375 -1.3125 0.34375zm0.109375 -1.0q0.5625 0 1.046875 -0.296875q0.5 -0.296875 0.796875 -0.78125q0.296875 -0.5 0.296875 -1.09375q-0.328125 -0.203125 -0.796875 -0.328125q-0.453125 -0.140625 -0.984375 -0.140625q-0.921875 0 -1.40625 0.390625q-0.46875 0.375 -0.46875 0.984375q0 0.5625 0.421875 0.921875q0.4375 0.34375 1.09375 0.34375zm7.2719955 0.890625q-0.421875 0 -0.7812424 -0.125q-0.34375 -0.140625 -0.578125 -0.375q-0.53125 -0.5 -0.53125 -1.390625l0 -3.984375l-1.1875 0l0 -1.03125l1.1875 0l0 -1.921875l1.125 0l0 1.921875l1.6718674 0l0 1.03125l-1.6718674 0l0 3.703125q0 0.5625 0.21874237 0.828125q0.25 0.28125 0.734375 0.28125q0.40625 0 0.75 -0.21875l0 1.109375q-0.203125 0.09375 -0.421875 0.125q-0.203125 0.046875 -0.515625 0.046875zm5.1003723 0.109375q-1.0 0 -1.796875 -0.484375q-0.796875 -0.484375 -1.25 -1.3125q-0.4375 -0.828125 -0.4375 -1.828125q0 -0.984375 0.4375 -1.8125q0.453125 -0.828125 1.25 -1.3125q0.796875 -0.484375 1.796875 -0.484375q1.0 0 1.796875 0.484375q0.8125 0.484375 1.25 1.3125q0.453125 0.828125 0.453125 1.8125q0 1.0 -0.453125 1.828125q-0.4375 0.828125 -1.25 1.3125q-0.796875 0.484375 -1.796875 0.484375zm0 -1.03125q0.625 0 1.15625 -0.3125q0.546875 -0.3125 0.875 -0.890625q0.328125 -0.59375 0.328125 -1.390625q0 -0.78125 -0.328125 -1.359375q-0.328125 -0.59375 -0.875 -0.90625q-0.53125 -0.3125 -1.15625 -0.3125q-0.625 0 -1.171875 0.3125q-0.546875 0.3125 -0.875 0.90625q-0.328125 0.578125 -0.328125 1.359375q0 0.796875 0.328125 1.390625q0.328125 0.578125 0.875 0.890625q0.546875 0.3125 1.171875 0.3125zm4.685196 -5.984375l1.078125 0l0 1.09375l0.046875 0q0.203125 -0.5625 0.765625 -0.921875q0.578125 -0.375 1.203125 -0.375q0.46875 0 0.8125 0.140625l0 1.21875q-0.4375 -0.203125 -0.96875 -0.203125q-0.484375 0 -0.90625 0.28125q-0.40625 0.265625 -0.65625 0.75q-0.25 0.46875 -0.25 1.015625l0 3.796875l-1.125 0l0 -6.796875z" fill-rule="nonzero"/><path fill="#000000" fill-opacity="0.0" d="m159.45271 171.35318l48.18898 0" fill-rule="evenodd"/><path stroke="#595959" stroke-width="3.0" stroke-linejoin="round" stroke-linecap="butt" d="m159.45271 171.35318l30.18898 0" fill-rule="evenodd"/><path fill="#595959" stroke="#595959" stroke-width="3.0" stroke-linecap="butt" d="m189.6417 176.30838l13.614288 -4.9552l-13.614288 -4.9552z" fill-rule="evenodd"/><path fill="#000000" fill-opacity="0.0" d="m159.45015 365.92142l48.18898 -0.03149414" fill-rule="evenodd"/><path stroke="#595959" stroke-width="3.0" stroke-linejoin="round" stroke-linecap="butt" d="m159.45015 365.92142l30.18898 -0.019714355" fill-rule="evenodd"/><path fill="#595959" stroke="#595959" stroke-width="3.0" stroke-linecap="butt" d="m189.64236 370.8569l13.611053 -4.9641113l-13.617523 -4.946289z" fill-rule="evenodd"/><path fill="#000000" fill-opacity="0.0" d="m207.63518 171.35413l0 0c1.2070465 0 2.3646545 0.4794922 3.2181702 1.3330078c0.85350037 0.8535156 1.3330078 2.0111237 1.3330078 3.2181702l0 88.17322c0 2.5135498 2.0376282 4.551178 4.551178 4.551178l0 0c-2.5135498 0 -4.551178 2.0376587 -4.551178 4.5512085l0 88.17322c0 2.5135498 -2.0376434 4.551178 -4.551178 4.551178z" fill-rule="evenodd"/><path fill="#000000" fill-opacity="0.0" d="m207.63518 171.35413l0 0c1.2070465 0 2.3646545 0.4794922 3.2181702 1.3330078c0.85350037 0.8535156 1.3330078 2.0111237 1.3330078 3.2181702l0 88.17322c0 2.5135498 2.0376282 4.551178 4.551178 4.551178l0 0c-2.5135498 0 -4.551178 2.0376587 -4.551178 4.5512085l0 88.17322c0 2.5135498 -2.0376434 4.551178 -4.551178 4.551178" fill-rule="evenodd"/><path stroke="#595959" stroke-width="3.0" stroke-linejoin="round" stroke-linecap="butt" d="m207.63518 171.35413l0 0c1.2070465 0 2.3646545 0.4794922 3.2181702 1.3330078c0.85350037 0.8535156 1.3330078 2.0111237 1.3330078 3.2181702l0 88.17322c0 2.5135498 2.0376282 4.551178 4.551178 4.551178l0 0c-2.5135498 0 -4.551178 2.0376587 -4.551178 4.5512085l0 88.17322c0 2.5135498 -2.0376434 4.551178 -4.551178 4.551178" fill-rule="evenodd"/><path fill="#eeeeee" d="m518.1732 200.17801l0 0c0 -14.055283 11.394043 -25.44934 25.44934 -25.44934l167.40057 0c6.7495728 0 13.222717 2.6812744 17.995361 7.453949c4.772705 4.7726746 7.4539185 11.245804 7.4539185 17.995392l0 101.79425c0 14.055267 -11.394043 25.44934 -25.44928 25.44934l-167.40057 0c-14.055298 0 -25.44934 -11.3940735 -25.44934 -25.44934z" fill-rule="evenodd"/><path stroke="#595959" stroke-width="1.0" stroke-linejoin="round" stroke-linecap="butt" d="m518.1732 200.17801l0 0c0 -14.055283 11.394043 -25.44934 25.44934 -25.44934l167.40057 0c6.7495728 0 13.222717 2.6812744 17.995361 7.453949c4.772705 4.7726746 7.4539185 11.245804 7.4539185 17.995392l0 101.79425c0 14.055267 -11.394043 25.44934 -25.44928 25.44934l-167.40057 0c-14.055298 0 -25.44934 -11.3940735 -25.44934 -25.44934z" fill-rule="evenodd"/><path fill="#000000" d="m625.0243 209.3994q-1.4375 0 -2.5625 -0.65625q-1.109375 -0.671875 -1.734375 -1.84375q-0.609375 -1.1875 -0.609375 -2.734375l0 -8.421875l1.59375 0l0 8.484375q0 1.625 0.859375 2.640625q0.859375 1.015625 2.453125 1.015625q1.609375 0 2.46875 -1.015625q0.875 -1.015625 0.875 -2.640625l0 -8.484375l1.578125 0l0 8.421875q0 1.546875 -0.59375 2.75q-0.578125 1.1875 -1.703125 1.84375q-1.109375 0.640625 -2.625 0.640625zm7.604431 -13.65625l1.578125 0l0 13.359375l-1.578125 0l0 -13.359375z" fill-rule="nonzero"/><path fill="#eeeeee" d="m269.14435 200.17801l0 0c0 -14.055283 11.3940735 -25.44934 25.44934 -25.44934l167.40054 0c6.7496033 0 13.222717 2.6812744 17.995392 7.453949c4.7726746 4.7726746 7.453949 11.245804 7.453949 17.995392l0 101.79425c0 14.055267 -11.394043 25.44934 -25.44934 25.44934l-167.40054 0c-14.055267 0 -25.44934 -11.3940735 -25.44934 -25.44934z" fill-rule="evenodd"/><path stroke="#595959" stroke-width="1.0" stroke-linejoin="round" stroke-linecap="butt" d="m269.14435 200.17801l0 0c0 -14.055283 11.3940735 -25.44934 25.44934 -25.44934l167.40054 0c6.7496033 0 13.222717 2.6812744 17.995392 7.453949c4.7726746 4.7726746 7.453949 11.245804 7.453949 17.995392l0 101.79425c0 14.055267 -11.394043 25.44934 -25.44934 25.44934l-167.40054 0c-14.055267 0 -25.44934 -11.3940735 -25.44934 -25.44934z" fill-rule="evenodd"/><path fill="#000000" d="m332.05914 195.74315l1.75 0l3.296875 9.6875l0.453125 1.328125l0.078125 0l0.46875 -1.328125l3.4375 -9.6875l1.765625 0l-4.890625 13.359375l-1.625 0l-4.734375 -13.359375zm13.242523 2.09375q-0.46875 0 -0.8125 -0.328125q-0.328125 -0.34375 -0.328125 -0.8125q0 -0.484375 0.328125 -0.8125q0.34375 -0.328125 0.8125 -0.328125q0.484375 0 0.8125 0.328125q0.328125 0.328125 0.328125 0.8125q0 0.46875 -0.328125 0.8125q-0.328125 0.328125 -0.8125 0.328125zm-0.78125 1.75l1.578125 0l0 9.515625l-1.578125 0l0 -9.515625zm8.20108 9.8125q-1.359375 0 -2.4375 -0.640625q-1.078125 -0.65625 -1.6875 -1.796875q-0.609375 -1.15625 -0.609375 -2.59375q0 -1.359375 0.5625 -2.53125q0.578125 -1.171875 1.625 -1.859375q1.0625 -0.6875 2.421875 -0.6875q1.390625 0 2.421875 0.625q1.03125 0.625 1.578125 1.734375q0.546875 1.09375 0.546875 2.515625q0 0.21875 -0.03125 0.484375l-7.546875 0q0.0625 1.078125 0.53125 1.828125q0.46875 0.734375 1.1875 1.109375q0.71875 0.375 1.5 0.375q1.859375 0 2.8125 -1.71875l1.34375 0.65625q-0.59375 1.140625 -1.65625 1.828125q-1.0625 0.671875 -2.5625 0.671875zm2.75 -6.0625q-0.046875 -0.59375 -0.34375 -1.1875q-0.296875 -0.609375 -0.9375 -1.015625q-0.625 -0.40625 -1.59375 -0.40625q-1.125 0 -1.90625 0.71875q-0.78125 0.71875 -1.03125 1.890625l5.8125 0zm2.285553 -3.75l1.640625 0l2.265625 7.515625l0.015625 0l2.40625 -7.515625l1.625 0l2.40625 7.5l0.015625 0l2.265625 -7.5l1.59375 0l-3.078125 9.515625l-1.59375 0l-2.46875 -7.59375l-2.4375 7.59375l-1.59375 0l-3.0625 -9.515625zm15.870911 -3.84375l2.28125 0l4.265625 10.953125l0.0625 0l4.265625 -10.953125l2.28125 0l0 13.359375l-1.5625 0l0 -8.484375l0.078125 -2.546875l-0.078125 0l-4.359375 11.03125l-1.3125 0l-4.359375 -11.03125l-0.078125 0l0.078125 2.546875l0 8.484375l-1.5625 0l0 -13.359375zm20.032166 13.65625q-1.40625 0 -2.53125 -0.671875q-1.109375 -0.671875 -1.734375 -1.828125q-0.625 -1.15625 -0.625 -2.546875q0 -1.40625 0.625 -2.5625q0.625 -1.15625 1.734375 -1.828125q1.125 -0.671875 2.53125 -0.671875q1.390625 0 2.515625 0.671875q1.125 0.671875 1.75 1.828125q0.625 1.15625 0.625 2.5625q0 1.390625 -0.625 2.546875q-0.625 1.15625 -1.75 1.828125q-1.125 0.671875 -2.515625 0.671875zm0 -1.4375q0.875 0 1.625 -0.4375q0.765625 -0.4375 1.21875 -1.25q0.453125 -0.828125 0.453125 -1.921875q0 -1.109375 -0.453125 -1.921875q-0.453125 -0.828125 -1.21875 -1.265625q-0.75 -0.4375 -1.625 -0.4375q-0.875 0 -1.640625 0.4375q-0.765625 0.4375 -1.234375 1.265625q-0.453125 0.8125 -0.453125 1.921875q0 1.09375 0.453125 1.921875q0.46875 0.8125 1.234375 1.25q0.765625 0.4375 1.640625 0.4375zm10.77536 1.4375q-1.28125 0 -2.328125 -0.640625q-1.03125 -0.65625 -1.625 -1.796875q-0.59375 -1.15625 -0.59375 -2.609375q0 -1.4375 0.59375 -2.59375q0.59375 -1.15625 1.625 -1.8125q1.046875 -0.65625 2.328125 -0.65625q1.09375 0 1.9375 0.5q0.859375 0.484375 1.3125 1.21875l0.078125 0l-0.078125 -1.328125l0 -3.9375l1.59375 0l0 13.359375l-1.515625 0l0 -1.40625l-0.078125 0q-0.453125 0.71875 -1.3125 1.21875q-0.84375 0.484375 -1.9375 0.484375zm0.171875 -1.4375q0.84375 0 1.5625 -0.4375q0.71875 -0.453125 1.15625 -1.265625q0.4375 -0.828125 0.4375 -1.90625q0 -1.09375 -0.4375 -1.90625q-0.4375 -0.828125 -1.15625 -1.265625q-0.71875 -0.453125 -1.5625 -0.453125q-0.8125 0 -1.546875 0.453125q-0.734375 0.4375 -1.171875 1.265625q-0.4375 0.828125 -0.4375 1.90625q0 1.0625 0.4375 1.890625q0.4375 0.828125 1.171875 1.28125q0.734375 0.4375 1.546875 0.4375zm11.153351 1.4375q-1.359375 0 -2.4375 -0.640625q-1.078125 -0.65625 -1.6875 -1.796875q-0.609375 -1.15625 -0.609375 -2.59375q0 -1.359375 0.5625 -2.53125q0.578125 -1.171875 1.625 -1.859375q1.0625 -0.6875 2.421875 -0.6875q1.390625 0 2.421875 0.625q1.03125 0.625 1.578125 1.734375q0.546875 1.09375 0.546875 2.515625q0 0.21875 -0.03125 0.484375l-7.546875 0q0.0625 1.078125 0.53125 1.828125q0.46875 0.734375 1.1875 1.109375q0.71875 0.375 1.5 0.375q1.859375 0 2.8125 -1.71875l1.34375 0.65625q-0.59375 1.140625 -1.65625 1.828125q-1.0625 0.671875 -2.5625 0.671875zm2.75 -6.0625q-0.046875 -0.59375 -0.34375 -1.1875q-0.296875 -0.609375 -0.9375 -1.015625q-0.625 -0.40625 -1.59375 -0.40625q-1.125 0 -1.90625 0.71875q-0.78125 0.71875 -1.03125 1.890625l5.8125 0zm3.519104 -7.59375l1.59375 0l0 13.359375l-1.59375 0l0 -13.359375z" fill-rule="nonzero"/><path fill="#b6d7a8" d="m279.00507 254.83478l0 0c0 -3.8095245 3.0882568 -6.897766 6.897766 -6.897766l112.377686 0c1.8294067 0 3.5838928 0.72673035 4.877472 2.0203094c1.2935791 1.2935791 2.0202942 3.0480652 2.0202942 4.8774567l0 27.590271c0 3.8095398 -3.0882263 6.8977966 -6.897766 6.8977966l-112.377686 0c-3.8095093 0 -6.897766 -3.0882568 -6.897766 -6.8977966z" fill-rule="evenodd"/><path stroke="#595959" stroke-width="1.0" stroke-linejoin="round" stroke-linecap="butt" d="m279.00507 254.83478l0 0c0 -3.8095245 3.0882568 -6.897766 6.897766 -6.897766l112.377686 0c1.8294067 0 3.5838928 0.72673035 4.877472 2.0203094c1.2935791 1.2935791 2.0202942 3.0480652 2.0202942 4.8774567l0 27.590271c0 3.8095398 -3.0882263 6.8977966 -6.897766 6.8977966l-112.377686 0c-3.8095093 0 -6.897766 -3.0882568 -6.897766 -6.8977966z" fill-rule="evenodd"/><path fill="#000000" d="m325.7478 263.88306l3.21875 0q0.796875 0 1.46875 0.359375q0.6875 0.359375 1.09375 1.015625q0.40625 0.640625 0.40625 1.453125q0 0.8125 -0.40625 1.46875q-0.40625 0.640625 -1.09375 1.0q-0.671875 0.359375 -1.46875 0.359375l-2.078125 0l0 3.890625l-1.140625 0l0 -9.546875zm3.25 4.578125q0.53125 0 0.9375 -0.25q0.40625 -0.265625 0.625 -0.65625q0.234375 -0.40625 0.234375 -0.84375q0 -0.4375 -0.234375 -0.828125q-0.21875 -0.40625 -0.625 -0.65625q-0.40625 -0.265625 -0.9375 -0.265625l-2.109375 0l0 3.5l2.109375 0zm6.113434 5.1875q-0.75 0 -1.34375 -0.296875q-0.578125 -0.296875 -0.90625 -0.8125q-0.3125 -0.515625 -0.3125 -1.15625q0 -1.078125 0.8125 -1.6875q0.8125 -0.609375 2.046875 -0.609375q0.625 0 1.140625 0.140625q0.53125 0.125 0.8125 0.296875l0 -0.40625q0 -0.765625 -0.53125 -1.21875q-0.53125 -0.46875 -1.34375 -0.46875q-0.5625 0 -1.046875 0.25q-0.484375 0.25 -0.765625 0.6875l-0.859375 -0.640625q0.40625 -0.609375 1.109375 -0.953125q0.703125 -0.359375 1.5625 -0.359375q1.375 0 2.15625 0.734375q0.796875 0.71875 0.796875 1.96875l0 4.3125l-1.078125 0l0 -0.96875l-0.046875 0q-0.296875 0.484375 -0.890625 0.84375q-0.578125 0.34375 -1.3125 0.34375zm0.109375 -1.0q0.5625 0 1.046875 -0.296875q0.5 -0.296875 0.796875 -0.78125q0.296875 -0.5 0.296875 -1.09375q-0.328125 -0.203125 -0.796875 -0.328125q-0.453125 -0.140625 -0.984375 -0.140625q-0.921875 0 -1.40625 0.390625q-0.46875 0.375 -0.46875 0.984375q0 0.5625 0.421875 0.921875q0.4375 0.34375 1.09375 0.34375zm7.7136536 3.875q-1.203125 0 -1.984375 -0.5625q-0.78125 -0.5625 -1.046875 -1.34375l1.046875 -0.4375q0.203125 0.578125 0.734375 0.9375q0.53125 0.375 1.25 0.375q1.046875 0 1.625 -0.609375q0.578125 -0.609375 0.578125 -1.734375l0 -0.765625l-0.046875 0q-0.328125 0.53125 -0.9375 0.859375q-0.609375 0.328125 -1.375 0.328125q-0.890625 0 -1.625 -0.453125q-0.71875 -0.453125 -1.140625 -1.265625q-0.421875 -0.828125 -0.421875 -1.859375q0 -1.03125 0.421875 -1.84375q0.421875 -0.828125 1.140625 -1.28125q0.734375 -0.453125 1.625 -0.453125q0.765625 0 1.375 0.328125q0.609375 0.328125 0.9375 0.859375l0.046875 0l0 -0.96875l1.09375 0l0 6.53125q0 1.640625 -0.921875 2.5q-0.90625 0.859375 -2.375 0.859375zm0 -3.984375q0.609375 0 1.109375 -0.296875q0.5 -0.3125 0.796875 -0.890625q0.296875 -0.578125 0.296875 -1.359375q0 -0.796875 -0.296875 -1.375q-0.296875 -0.578125 -0.796875 -0.875q-0.5 -0.296875 -1.109375 -0.296875q-0.609375 0 -1.125 0.3125q-0.5 0.296875 -0.8125 0.875q-0.296875 0.578125 -0.296875 1.359375q0 0.78125 0.296875 1.359375q0.3125 0.578125 0.8125 0.890625q0.515625 0.296875 1.125 0.296875zm7.9214478 1.109375q-0.96875 0 -1.75 -0.46875q-0.765625 -0.46875 -1.203125 -1.28125q-0.421875 -0.828125 -0.421875 -1.859375q0 -0.96875 0.40625 -1.796875q0.40625 -0.84375 1.15625 -1.328125q0.75 -0.5 1.71875 -0.5q1.0 0 1.734375 0.453125q0.734375 0.4375 1.125 1.234375q0.40625 0.78125 0.40625 1.796875q0 0.15625 -0.03125 0.34375l-5.390625 0q0.046875 0.78125 0.375 1.3125q0.328125 0.53125 0.84375 0.796875q0.515625 0.265625 1.078125 0.265625q1.328125 0 2.015625 -1.234375l0.953125 0.46875q-0.421875 0.8125 -1.1875 1.3125q-0.75 0.484375 -1.828125 0.484375zm1.96875 -4.34375q-0.03125 -0.421875 -0.25 -0.84375q-0.203125 -0.421875 -0.65625 -0.71875q-0.453125 -0.296875 -1.15625 -0.296875q-0.796875 0 -1.359375 0.515625q-0.546875 0.515625 -0.734375 1.34375l4.15625 0zm2.5193176 -2.671875l1.078125 0l0 1.09375l0.046875 0q0.203125 -0.5625 0.765625 -0.921875q0.578125 -0.375 1.203125 -0.375q0.46875 0 0.8125 0.140625l0 1.21875q-0.4375 -0.203125 -0.96875 -0.203125q-0.484375 0 -0.90625 0.28125q-0.40625 0.265625 -0.65625 0.75q-0.25 0.46875 -0.25 1.015625l0 3.796875l-1.125 0l0 -6.796875z" fill-rule="nonzero"/><path fill="#b6d7a8" d="m582.06036 254.23637l0 0c0 -4.174835 3.3843994 -7.559204 7.559204 -7.559204l131.14929 0c2.0048218 0 3.9275513 0.79641724 5.345154 2.214035c1.4176636 1.417633 2.2140503 3.3403473 2.2140503 5.345169l0 30.235916c0 4.174835 -3.3843384 7.559204 -7.559204 7.559204l-131.14929 0c-4.1748047 0 -7.559204 -3.384369 -7.559204 -7.559204z" fill-rule="evenodd"/><path stroke="#595959" stroke-width="1.0" stroke-linejoin="round" stroke-linecap="butt" d="m582.06036 254.23637l0 0c0 -4.174835 3.3843994 -7.559204 7.559204 -7.559204l131.14929 0c2.0048218 0 3.9275513 0.79641724 5.345154 2.214035c1.4176636 1.417633 2.2140503 3.3403473 2.2140503 5.345169l0 30.235916c0 4.174835 -3.3843384 7.559204 -7.559204 7.559204l-131.14929 0c-4.1748047 0 -7.559204 -3.384369 -7.559204 -7.559204z" fill-rule="evenodd"/><path fill="#000000" d="m597.5335 264.60745l3.21875 0q0.796875 0 1.46875 0.359375q0.6875 0.359375 1.09375 1.015625q0.40625 0.640625 0.40625 1.453125q0 0.8125 -0.40625 1.46875q-0.40625 0.640625 -1.09375 1.0q-0.671875 0.359375 -1.46875 0.359375l-2.078125 0l0 3.890625l-1.140625 0l0 -9.546875zm3.25 4.578125q0.53125 0 0.9375 -0.25q0.40625 -0.265625 0.625 -0.65625q0.234375 -0.40625 0.234375 -0.84375q0 -0.4375 -0.234375 -0.828125q-0.21875 -0.40625 -0.625 -0.65625q-0.40625 -0.265625 -0.9375 -0.265625l-2.109375 0l0 3.5l2.109375 0zm6.1134033 5.1875q-0.75 0 -1.34375 -0.296875q-0.578125 -0.296875 -0.90625 -0.8125q-0.3125 -0.515625 -0.3125 -1.15625q0 -1.078125 0.8125 -1.6875q0.8125 -0.609375 2.046875 -0.609375q0.625 0 1.140625 0.140625q0.53125 0.125 0.8125 0.296875l0 -0.40625q0 -0.765625 -0.53125 -1.21875q-0.53125 -0.46875 -1.34375 -0.46875q-0.5625 0 -1.046875 0.25q-0.484375 0.25 -0.765625 0.6875l-0.859375 -0.640625q0.40625 -0.609375 1.109375 -0.953125q0.703125 -0.359375 1.5625 -0.359375q1.375 0 2.15625 0.734375q0.796875 0.71875 0.796875 1.96875l0 4.3125l-1.078125 0l0 -0.96875l-0.046875 0q-0.296875 0.484375 -0.890625 0.84375q-0.578125 0.34375 -1.3125 0.34375zm0.109375 -1.0q0.5625 0 1.046875 -0.296875q0.5 -0.296875 0.796875 -0.78125q0.296875 -0.5 0.296875 -1.09375q-0.328125 -0.203125 -0.796875 -0.328125q-0.453125 -0.140625 -0.984375 -0.140625q-0.921875 0 -1.40625 0.390625q-0.46875 0.375 -0.46875 0.984375q0 0.5625 0.421875 0.921875q0.4375 0.34375 1.09375 0.34375zm7.713684 3.875q-1.203125 0 -1.984375 -0.5625q-0.78125 -0.5625 -1.046875 -1.34375l1.046875 -0.4375q0.203125 0.578125 0.734375 0.9375q0.53125 0.375 1.25 0.375q1.046875 0 1.625 -0.609375q0.578125 -0.609375 0.578125 -1.734375l0 -0.765625l-0.046875 0q-0.328125 0.53125 -0.9375 0.859375q-0.609375 0.328125 -1.375 0.328125q-0.890625 0 -1.625 -0.453125q-0.71875 -0.453125 -1.140625 -1.265625q-0.421875 -0.828125 -0.421875 -1.859375q0 -1.03125 0.421875 -1.84375q0.421875 -0.828125 1.140625 -1.28125q0.734375 -0.453125 1.625 -0.453125q0.765625 0 1.375 0.328125q0.609375 0.328125 0.9375 0.859375l0.046875 0l0 -0.96875l1.09375 0l0 6.53125q0 1.640625 -0.921875 2.5q-0.90625 0.859375 -2.375 0.859375zm0 -3.984375q0.609375 0 1.109375 -0.296875q0.5 -0.3125 0.796875 -0.890625q0.296875 -0.578125 0.296875 -1.359375q0 -0.796875 -0.296875 -1.375q-0.296875 -0.578125 -0.796875 -0.875q-0.5 -0.296875 -1.109375 -0.296875q-0.609375 0 -1.125 0.3125q-0.5 0.296875 -0.8125 0.875q-0.296875 0.578125 -0.296875 1.359375q0 0.78125 0.296875 1.359375q0.3125 0.578125 0.8125 0.890625q0.515625 0.296875 1.125 0.296875zm5.628723 -7.15625q-0.328125 0 -0.578125 -0.234375q-0.234375 -0.25 -0.234375 -0.578125q0 -0.34375 0.234375 -0.578125q0.25 -0.234375 0.578125 -0.234375q0.359375 0 0.578125 0.234375q0.234375 0.234375 0.234375 0.578125q0 0.328125 -0.234375 0.578125q-0.21875 0.234375 -0.578125 0.234375zm-0.546875 1.25l1.125 0l0 6.796875l-1.125 0l0 -6.796875zm2.902771 0l1.078125 0l0 1.0l0.046875 0q0.28125 -0.5 0.890625 -0.859375q0.625 -0.359375 1.3125 -0.359375q1.21875 0 1.859375 0.71875q0.65625 0.71875 0.65625 1.9375l0 4.359375l-1.125 0l0 -4.1875q0 -0.9375 -0.453125 -1.359375q-0.453125 -0.4375 -1.25 -0.4375q-0.546875 0 -0.984375 0.3125q-0.421875 0.296875 -0.671875 0.796875q-0.234375 0.5 -0.234375 1.046875l0 3.828125l-1.125 0l0 -6.796875zm10.394775 9.890625q-1.203125 0 -1.984375 -0.5625q-0.78125 -0.5625 -1.046875 -1.34375l1.046875 -0.4375q0.203125 0.578125 0.734375 0.9375q0.53125 0.375 1.25 0.375q1.046875 0 1.625 -0.609375q0.578125 -0.609375 0.578125 -1.734375l0 -0.765625l-0.046875 0q-0.328125 0.53125 -0.9375 0.859375q-0.609375 0.328125 -1.375 0.328125q-0.890625 0 -1.625 -0.453125q-0.71875 -0.453125 -1.140625 -1.265625q-0.421875 -0.828125 -0.421875 -1.859375q0 -1.03125 0.421875 -1.84375q0.421875 -0.828125 1.140625 -1.28125q0.734375 -0.453125 1.625 -0.453125q0.765625 0 1.375 0.328125q0.609375 0.328125 0.9375 0.859375l0.046875 0l0 -0.96875l1.09375 0l0 6.53125q0 1.640625 -0.921875 2.5q-0.90625 0.859375 -2.375 0.859375zm0 -3.984375q0.609375 0 1.109375 -0.296875q0.5 -0.3125 0.796875 -0.890625q0.296875 -0.578125 0.296875 -1.359375q0 -0.796875 -0.296875 -1.375q-0.296875 -0.578125 -0.796875 -0.875q-0.5 -0.296875 -1.109375 -0.296875q-0.609375 0 -1.125 0.3125q-0.5 0.296875 -0.8125 0.875q-0.296875 0.578125 -0.296875 1.359375q0 0.78125 0.296875 1.359375q0.3125 0.578125 0.8125 0.890625q0.515625 0.296875 1.125 0.296875zm5.191223 -8.65625l2.875 0q1.46875 0 2.5625 0.609375q1.09375 0.609375 1.671875 1.6875q0.59375 1.078125 0.59375 2.484375q0 1.390625 -0.59375 2.46875q-0.578125 1.078125 -1.671875 1.6875q-1.09375 0.609375 -2.5625 0.609375l-2.875 0l0 -9.546875zm2.875 8.46875q1.703125 0 2.6875 -0.96875q1.0 -0.984375 1.0 -2.71875q0 -1.75 -1.0 -2.71875q-0.984375 -0.984375 -2.6875 -0.984375l-1.734375 0l0 7.390625l1.734375 0zm8.447754 1.296875q-0.75 0 -1.343689 -0.296875q-0.578125 -0.296875 -0.90625 -0.8125q-0.3125 -0.515625 -0.3125 -1.15625q0 -1.078125 0.8125 -1.6875q0.81243896 -0.609375 2.046814 -0.609375q0.625 0 1.140625 0.140625q0.53125 0.125 0.8125 0.296875l0 -0.40625q0 -0.765625 -0.53125 -1.21875q-0.53125 -0.46875 -1.34375 -0.46875q-0.5625 0 -1.046875 0.25q-0.484375 0.25 -0.76556396 0.6875l-0.859375 -0.640625q0.40625 -0.609375 1.109314 -0.953125q0.703125 -0.359375 1.5625 -0.359375q1.375 0 2.15625 0.734375q0.796875 0.71875 0.796875 1.96875l0 4.3125l-1.078125 0l0 -0.96875l-0.046875 0q-0.296875 0.484375 -0.890625 0.84375q-0.578125 0.34375 -1.3125 0.34375zm0.109375 -1.0q0.5625 0 1.046875 -0.296875q0.5 -0.296875 0.796875 -0.78125q0.296875 -0.5 0.296875 -1.09375q-0.328125 -0.203125 -0.796875 -0.328125q-0.453125 -0.140625 -0.984375 -0.140625q-0.921875 0 -1.40625 0.390625q-0.46868896 0.375 -0.46868896 0.984375q0 0.5625 0.42181396 0.921875q0.4375 0.34375 1.09375 0.34375zm7.2720337 0.890625q-0.421875 0 -0.78125 -0.125q-0.34375 -0.140625 -0.578125 -0.375q-0.53125 -0.5 -0.53125 -1.390625l0 -3.984375l-1.1875 0l0 -1.03125l1.1875 0l0 -1.921875l1.125 0l0 1.921875l1.671875 0l0 1.03125l-1.671875 0l0 3.703125q0 0.5625 0.21875 0.828125q0.25 0.28125 0.734375 0.28125q0.40625 0 0.75 -0.21875l0 1.109375q-0.203125 0.09375 -0.421875 0.125q-0.203125 0.046875 -0.515625 0.046875zm4.307251 0.109375q-0.75 0 -1.34375 -0.296875q-0.578125 -0.296875 -0.90625 -0.8125q-0.3125 -0.515625 -0.3125 -1.15625q0 -1.078125 0.8125 -1.6875q0.8125 -0.609375 2.046875 -0.609375q0.625 0 1.140625 0.140625q0.53125 0.125 0.8125 0.296875l0 -0.40625q0 -0.765625 -0.53125 -1.21875q-0.53125 -0.46875 -1.34375 -0.46875q-0.5625 0 -1.046875 0.25q-0.484375 0.25 -0.765625 0.6875l-0.859375 -0.640625q0.40625 -0.609375 1.109375 -0.953125q0.703125 -0.359375 1.5625 -0.359375q1.375 0 2.15625 0.734375q0.796875 0.71875 0.796875 1.96875l0 4.3125l-1.078125 0l0 -0.96875l-0.046875 0q-0.296875 0.484375 -0.890625 0.84375q-0.578125 0.34375 -1.3125 0.34375zm0.109375 -1.0q0.5625 0 1.046875 -0.296875q0.5 -0.296875 0.796875 -0.78125q0.296875 -0.5 0.296875 -1.09375q-0.328125 -0.203125 -0.796875 -0.328125q-0.453125 -0.140625 -0.984375 -0.140625q-0.921875 0 -1.40625 0.390625q-0.46875 0.375 -0.46875 0.984375q0 0.5625 0.421875 0.921875q0.4375 0.34375 1.09375 0.34375zm7.7803345 -8.765625l1.28125 0l3.625 9.546875l-1.25 0l-0.953125 -2.625l-4.125 0l-0.96875 2.625l-1.234375 0l3.625 -9.546875zm2.3125 5.859375l-1.28125 -3.4375l-0.375 -1.03125l-0.046875 0l-0.375 1.03125l-1.28125 3.4375l3.359375 0zm6.3235474 3.90625q-0.921875 0 -1.671875 -0.46875q-0.734375 -0.46875 -1.15625 -1.28125q-0.421875 -0.828125 -0.421875 -1.875q0 -1.015625 0.421875 -1.84375q0.421875 -0.828125 1.15625 -1.296875q0.75 -0.46875 1.671875 -0.46875q0.765625 0 1.375 0.359375q0.625 0.359375 0.9375 0.875l0.0625 0l-0.0625 -0.953125l0 -2.8125l1.140625 0l0 9.546875l-1.078125 0l0 -1.0l-0.0625 0q-0.3125 0.5 -0.9375 0.859375q-0.609375 0.359375 -1.375 0.359375zm0.125 -1.03125q0.59375 0 1.109375 -0.3125q0.515625 -0.328125 0.828125 -0.90625q0.3125 -0.59375 0.3125 -1.375q0 -0.765625 -0.3125 -1.34375q-0.3125 -0.59375 -0.828125 -0.90625q-0.515625 -0.328125 -1.109375 -0.328125q-0.59375 0 -1.125 0.328125q-0.515625 0.3125 -0.828125 0.90625q-0.3125 0.59375 -0.3125 1.34375q0 0.765625 0.3125 1.359375q0.3125 0.59375 0.828125 0.921875q0.53125 0.3125 1.125 0.3125zm7.113098 1.03125q-0.75 0 -1.34375 -0.296875q-0.578125 -0.296875 -0.90625 -0.8125q-0.3125 -0.515625 -0.3125 -1.15625q0 -1.078125 0.8125 -1.6875q0.8125 -0.609375 2.046875 -0.609375q0.625 0 1.140625 0.140625q0.53125 0.125 0.8125 0.296875l0 -0.40625q0 -0.765625 -0.53125 -1.21875q-0.53125 -0.46875 -1.34375 -0.46875q-0.5625 0 -1.046875 0.25q-0.484375 0.25 -0.765625 0.6875l-0.859375 -0.640625q0.40625 -0.609375 1.109375 -0.953125q0.703125 -0.359375 1.5625 -0.359375q1.375 0 2.15625 0.734375q0.796875 0.71875 0.796875 1.96875l0 4.3125l-1.078125 0l0 -0.96875l-0.046875 0q-0.296875 0.484375 -0.890625 0.84375q-0.578125 0.34375 -1.3125 0.34375zm0.109375 -1.0q0.5625 0 1.046875 -0.296875q0.5 -0.296875 0.796875 -0.78125q0.296875 -0.5 0.296875 -1.09375q-0.328125 -0.203125 -0.796875 -0.328125q-0.453125 -0.140625 -0.984375 -0.140625q-0.921875 0 -1.40625 0.390625q-0.46875 0.375 -0.46875 0.984375q0 0.5625 0.421875 0.921875q0.4375 0.34375 1.09375 0.34375zm4.7334595 -6.015625l1.078125 0l0 1.015625l0.0625 0q0.296875 -0.515625 0.921875 -0.875q0.625 -0.359375 1.390625 -0.359375q0.921875 0 1.65625 0.46875q0.75 0.46875 1.171875 1.296875q0.421875 0.828125 0.421875 1.84375q0 1.046875 -0.421875 1.875q-0.421875 0.8125 -1.171875 1.28125q-0.734375 0.46875 -1.65625 0.46875q-0.765625 0 -1.390625 -0.359375q-0.625 -0.359375 -0.921875 -0.859375l-0.0625 0l0.0625 0.9375l0 2.9375l-1.140625 0l0 -9.671875zm3.34375 5.984375q0.578125 0 1.09375 -0.3125q0.53125 -0.328125 0.828125 -0.90625q0.3125 -0.59375 0.3125 -1.375q0 -0.765625 -0.3125 -1.34375q-0.296875 -0.59375 -0.828125 -0.90625q-0.515625 -0.328125 -1.09375 -0.328125q-0.609375 0 -1.125 0.328125q-0.5 0.3125 -0.828125 0.90625q-0.3125 0.578125 -0.3125 1.34375q0 0.78125 0.3125 1.375q0.328125 0.578125 0.828125 0.90625q0.515625 0.3125 1.125 0.3125zm7.031616 0.921875q-0.421875 0 -0.78125 -0.125q-0.34375 -0.140625 -0.578125 -0.375q-0.53125 -0.5 -0.53125 -1.390625l0 -3.984375l-1.1875 0l0 -1.03125l1.1875 0l0 -1.921875l1.125 0l0 1.921875l1.671875 0l0 1.03125l-1.671875 0l0 3.703125q0 0.5625 0.21875 0.828125q0.25 0.28125 0.734375 0.28125q0.40625 0 0.75 -0.21875l0 1.109375q-0.203125 0.09375 -0.421875 0.125q-0.203125 0.046875 -0.515625 0.046875zm4.991028 0.109375q-0.96875 0 -1.75 -0.46875q-0.765625 -0.46875 -1.203125 -1.28125q-0.421875 -0.828125 -0.421875 -1.859375q0 -0.96875 0.40625 -1.796875q0.40625 -0.84375 1.15625 -1.328125q0.75 -0.5 1.71875 -0.5q1.0 0 1.734375 0.453125q0.734375 0.4375 1.125 1.234375q0.40625 0.78125 0.40625 1.796875q0 0.15625 -0.03125 0.34375l-5.390625 0q0.046875 0.78125 0.375 1.3125q0.328125 0.53125 0.84375 0.796875q0.515625 0.265625 1.078125 0.265625q1.328125 0 2.015625 -1.234375l0.953125 0.46875q-0.421875 0.8125 -1.1875 1.3125q-0.75 0.484375 -1.828125 0.484375zm1.96875 -4.34375q-0.03125 -0.421875 -0.25 -0.84375q-0.203125 -0.421875 -0.65625 -0.71875q-0.453125 -0.296875 -1.15625 -0.296875q-0.796875 0 -1.359375 0.515625q-0.546875 0.515625 -0.734375 1.34375l4.15625 0zm2.5193481 -2.671875l1.078125 0l0 1.09375l0.046875 0q0.203125 -0.5625 0.765625 -0.921875q0.578125 -0.375 1.203125 -0.375q0.46875 0 0.8125 0.140625l0 1.21875q-0.4375 -0.203125 -0.96875 -0.203125q-0.484375 0 -0.90625 0.28125q-0.40625 0.265625 -0.65625 0.75q-0.25 0.46875 -0.25 1.015625l0 3.796875l-1.125 0l0 -6.796875z" fill-rule="nonzero"/><path fill="#000000" fill-opacity="0.0" d="m405.17828 268.6299l176.8819 0.72442627" fill-rule="evenodd"/><path stroke="#595959" stroke-width="3.0" stroke-linejoin="round" stroke-linecap="butt" d="m405.1783 268.6299l158.88205 0.6506958" fill-rule="evenodd"/><path fill="#595959" stroke="#595959" stroke-width="3.0" stroke-linecap="butt" d="m564.04004 274.23578l13.6345215 -4.899414l-13.593933 -5.010895z" fill-rule="evenodd"/><path fill="#b6d7a8" d="m419.4484 259.69562l0 0c0 -2.4671936 2.0000916 -4.46727 4.467285 -4.46727l125.963104 0c1.1847534 0 2.321045 0.47065735 3.1588135 1.3084259c0.83776855 0.8377991 1.3084717 1.97406 1.3084717 3.158844l0 17.868591c0 2.4672241 -2.000122 4.467285 -4.467285 4.467285l-125.963104 0l0 0c-2.4671936 0 -4.467285 -2.000061 -4.467285 -4.467285z" fill-rule="evenodd"/><path stroke="#595959" stroke-width="1.0" stroke-linejoin="round" stroke-linecap="butt" d="m419.4484 259.69562l0 0c0 -2.4671936 2.0000916 -4.46727 4.467285 -4.46727l125.963104 0c1.1847534 0 2.321045 0.47065735 3.1588135 1.3084259c0.83776855 0.8377991 1.3084717 1.97406 1.3084717 3.158844l0 17.868591c0 2.4672241 -2.000122 4.467285 -4.467285 4.467285l-125.963104 0l0 0c-2.4671936 0 -4.467285 -2.000061 -4.467285 -4.467285z" fill-rule="evenodd"/><path fill="#000000" d="m432.89493 263.88306l5.515625 0l0 1.078125l-4.375 0l0 3.265625l3.953125 0l0 1.078125l-3.953125 0l0 4.125l-1.140625 0l0 -9.546875zm6.8584595 0l1.125 0l0 9.546875l-1.125 0l0 -9.546875zm5.870575 9.765625q-1.0 0 -1.796875 -0.484375q-0.796875 -0.484375 -1.25 -1.3125q-0.4375 -0.828125 -0.4375 -1.828125q0 -0.984375 0.4375 -1.8125q0.453125 -0.828125 1.25 -1.3125q0.796875 -0.484375 1.796875 -0.484375q1.0 0 1.796875 0.484375q0.8125 0.484375 1.25 1.3125q0.453125 0.828125 0.453125 1.8125q0 1.0 -0.453125 1.828125q-0.4375 0.828125 -1.25 1.3125q-0.796875 0.484375 -1.796875 0.484375zm0 -1.03125q0.625 0 1.15625 -0.3125q0.546875 -0.3125 0.875 -0.890625q0.328125 -0.59375 0.328125 -1.390625q0 -0.78125 -0.328125 -1.359375q-0.328125 -0.59375 -0.875 -0.90625q-0.53125 -0.3125 -1.15625 -0.3125q-0.625 0 -1.171875 0.3125q-0.546875 0.3125 -0.875 0.90625q-0.328125 0.578125 -0.328125 1.359375q0 0.796875 0.328125 1.390625q0.328125 0.578125 0.875 0.890625q0.546875 0.3125 1.171875 0.3125zm3.9351807 -5.984375l1.171875 0l1.609375 5.375l0.015625 0l1.71875 -5.375l1.15625 0l1.71875 5.359375l0.015625 0l1.609375 -5.359375l1.15625 0l-2.203125 6.796875l-1.140625 0l-1.765625 -5.421875l-1.75 5.421875l-1.125 0l-2.1875 -6.796875zm10.9965515 3.59375l0 -0.828125l5.109375 -2.453125l0 1.046875l-3.921875 1.796875l0 0.0625l3.921875 1.796875l0 1.03125l-5.109375 -2.453125zm6.952179 -6.34375l3.21875 0q0.796875 0 1.46875 0.359375q0.6875 0.359375 1.09375 1.015625q0.40625 0.640625 0.40625 1.453125q0 0.8125 -0.40625 1.46875q-0.40625 0.640625 -1.09375 1.0q-0.671875 0.359375 -1.46875 0.359375l-2.078125 0l0 3.890625l-1.140625 0l0 -9.546875zm3.25 4.578125q0.53125 0 0.9375 -0.25q0.40625 -0.265625 0.625 -0.65625q0.234375 -0.40625 0.234375 -0.84375q0 -0.4375 -0.234375 -0.828125q-0.21875 -0.40625 -0.625 -0.65625q-0.40625 -0.265625 -0.9375 -0.265625l-2.109375 0l0 3.5l2.109375 0zm6.113434 5.1875q-0.75 0 -1.34375 -0.296875q-0.578125 -0.296875 -0.90625 -0.8125q-0.3125 -0.515625 -0.3125 -1.15625q0 -1.078125 0.8125 -1.6875q0.8125 -0.609375 2.046875 -0.609375q0.625 0 1.140625 0.140625q0.53125 0.125 0.8125 0.296875l0 -0.40625q0 -0.765625 -0.53125 -1.21875q-0.53125 -0.46875 -1.34375 -0.46875q-0.5625 0 -1.046875 0.25q-0.484375 0.25 -0.765625 0.6875l-0.859375 -0.640625q0.40625 -0.609375 1.109375 -0.953125q0.703125 -0.359375 1.5625 -0.359375q1.375 0 2.15625 0.734375q0.796875 0.71875 0.796875 1.96875l0 4.3125l-1.078125 0l0 -0.96875l-0.046875 0q-0.296875 0.484375 -0.890625 0.84375q-0.578125 0.34375 -1.3125 0.34375zm0.109375 -1.0q0.5625 0 1.046875 -0.296875q0.5 -0.296875 0.796875 -0.78125q0.296875 -0.5 0.296875 -1.09375q-0.328125 -0.203125 -0.796875 -0.328125q-0.453125 -0.140625 -0.984375 -0.140625q-0.921875 0 -1.40625 0.390625q-0.46875 0.375 -0.46875 0.984375q0 0.5625 0.421875 0.921875q0.4375 0.34375 1.09375 0.34375zm7.7136536 3.875q-1.203125 0 -1.984375 -0.5625q-0.78125 -0.5625 -1.046875 -1.34375l1.046875 -0.4375q0.203125 0.578125 0.734375 0.9375q0.53125 0.375 1.25 0.375q1.046875 0 1.625 -0.609375q0.578125 -0.609375 0.578125 -1.734375l0 -0.765625l-0.046875 0q-0.328125 0.53125 -0.9375 0.859375q-0.609375 0.328125 -1.375 0.328125q-0.890625 0 -1.625 -0.453125q-0.71875 -0.453125 -1.140625 -1.265625q-0.421875 -0.828125 -0.421875 -1.859375q0 -1.03125 0.421875 -1.84375q0.421875 -0.828125 1.140625 -1.28125q0.734375 -0.453125 1.625 -0.453125q0.765625 0 1.375 0.328125q0.609375 0.328125 0.9375 0.859375l0.046875 0l0 -0.96875l1.09375 0l0 6.53125q0 1.640625 -0.921875 2.5q-0.90625 0.859375 -2.375 0.859375zm0 -3.984375q0.609375 0 1.109375 -0.296875q0.5 -0.3125 0.796875 -0.890625q0.296875 -0.578125 0.296875 -1.359375q0 -0.796875 -0.296875 -1.375q-0.296875 -0.578125 -0.796875 -0.875q-0.5 -0.296875 -1.109375 -0.296875q-0.609375 0 -1.125 0.3125q-0.5 0.296875 -0.8125 0.875q-0.296875 0.578125 -0.296875 1.359375q0 0.78125 0.296875 1.359375q0.3125 0.578125 0.8125 0.890625q0.515625 0.296875 1.125 0.296875zm5.6287537 -7.15625q-0.328125 0 -0.578125 -0.234375q-0.234375 -0.25 -0.234375 -0.578125q0 -0.34375 0.234375 -0.578125q0.25 -0.234375 0.578125 -0.234375q0.359375 0 0.578125 0.234375q0.234375 0.234375 0.234375 0.578125q0 0.328125 -0.234375 0.578125q-0.21875 0.234375 -0.578125 0.234375zm-0.546875 1.25l1.125 0l0 6.796875l-1.125 0l0 -6.796875zm2.902771 0l1.078125 0l0 1.0l0.046875 0q0.28125 -0.5 0.890625 -0.859375q0.625 -0.359375 1.3125 -0.359375q1.21875 0 1.859375 0.71875q0.65625 0.71875 0.65625 1.9375l0 4.359375l-1.125 0l0 -4.1875q0 -0.9375 -0.453125 -1.359375q-0.453125 -0.4375 -1.25 -0.4375q-0.546875 0 -0.984375 0.3125q-0.421875 0.296875 -0.671875 0.796875q-0.234375 0.5 -0.234375 1.046875l0 3.828125l-1.125 0l0 -6.796875zm10.394745 9.890625q-1.203125 0 -1.984375 -0.5625q-0.78125 -0.5625 -1.046875 -1.34375l1.046875 -0.4375q0.203125 0.578125 0.734375 0.9375q0.53125 0.375 1.25 0.375q1.046875 0 1.625 -0.609375q0.578125 -0.609375 0.578125 -1.734375l0 -0.765625l-0.046875 0q-0.328125 0.53125 -0.9375 0.859375q-0.609375 0.328125 -1.375 0.328125q-0.890625 0 -1.625 -0.453125q-0.71875 -0.453125 -1.140625 -1.265625q-0.421875 -0.828125 -0.421875 -1.859375q0 -1.03125 0.421875 -1.84375q0.421875 -0.828125 1.140625 -1.28125q0.734375 -0.453125 1.625 -0.453125q0.765625 0 1.375 0.328125q0.609375 0.328125 0.9375 0.859375l0.046875 0l0 -0.96875l1.09375 0l0 6.53125q0 1.640625 -0.921875 2.5q-0.90625 0.859375 -2.375 0.859375zm0 -3.984375q0.609375 0 1.109375 -0.296875q0.5 -0.3125 0.796875 -0.890625q0.296875 -0.578125 0.296875 -1.359375q0 -0.796875 -0.296875 -1.375q-0.296875 -0.578125 -0.796875 -0.875q-0.5 -0.296875 -1.109375 -0.296875q-0.609375 0 -1.125 0.3125q-0.5 0.296875 -0.8125 0.875q-0.296875 0.578125 -0.296875 1.359375q0 0.78125 0.296875 1.359375q0.3125 0.578125 0.8125 0.890625q0.515625 0.296875 1.125 0.296875zm5.1912537 -8.65625l2.875 0q1.4687195 0 2.5624695 0.609375q1.09375 0.609375 1.671875 1.6875q0.59375 1.078125 0.59375 2.484375q0 1.390625 -0.59375 2.46875q-0.578125 1.078125 -1.671875 1.6875q-1.09375 0.609375 -2.5624695 0.609375l-2.875 0l0 -9.546875zm2.875 8.46875q1.7030945 0 2.6874695 -0.96875q1.0 -0.984375 1.0 -2.71875q0 -1.75 -1.0 -2.71875q-0.984375 -0.984375 -2.6874695 -0.984375l-1.734375 0l0 7.390625l1.734375 0zm8.447784 1.296875q-0.75 0 -1.34375 -0.296875q-0.578125 -0.296875 -0.90625 -0.8125q-0.3125 -0.515625 -0.3125 -1.15625q0 -1.078125 0.8125 -1.6875q0.8125 -0.609375 2.046875 -0.609375q0.625 0 1.140625 0.140625q0.53125 0.125 0.8125 0.296875l0 -0.40625q0 -0.765625 -0.53125 -1.21875q-0.53125 -0.46875 -1.34375 -0.46875q-0.5625 0 -1.046875 0.25q-0.484375 0.25 -0.765625 0.6875l-0.859375 -0.640625q0.40625 -0.609375 1.109375 -0.953125q0.703125 -0.359375 1.5625 -0.359375q1.375 0 2.15625 0.734375q0.796875 0.71875 0.796875 1.96875l0 4.3125l-1.078125 0l0 -0.96875l-0.046875 0q-0.296875 0.484375 -0.890625 0.84375q-0.578125 0.34375 -1.3125 0.34375zm0.109375 -1.0q0.5625 0 1.046875 -0.296875q0.5 -0.296875 0.796875 -0.78125q0.296875 -0.5 0.296875 -1.09375q-0.328125 -0.203125 -0.796875 -0.328125q-0.453125 -0.140625 -0.984375 -0.140625q-0.921875 0 -1.40625 0.390625q-0.46875 0.375 -0.46875 0.984375q0 0.5625 0.421875 0.921875q0.4375 0.34375 1.09375 0.34375zm7.2719727 0.890625q-0.421875 0 -0.78125 -0.125q-0.34375 -0.140625 -0.578125 -0.375q-0.53125 -0.5 -0.53125 -1.390625l0 -3.984375l-1.1875 0l0 -1.03125l1.1875 0l0 -1.921875l1.125 0l0 1.921875l1.671875 0l0 1.03125l-1.671875 0l0 3.703125q0 0.5625 0.21875 0.828125q0.25 0.28125 0.734375 0.28125q0.40625 0 0.75 -0.21875l0 1.109375q-0.203125 0.09375 -0.421875 0.125q-0.203125 0.046875 -0.515625 0.046875zm4.307251 0.109375q-0.75 0 -1.34375 -0.296875q-0.578125 -0.296875 -0.90625 -0.8125q-0.3125 -0.515625 -0.3125 -1.15625q0 -1.078125 0.8125 -1.6875q0.8125 -0.609375 2.046875 -0.609375q0.625 0 1.140625 0.140625q0.53125 0.125 0.8125 0.296875l0 -0.40625q0 -0.765625 -0.53125 -1.21875q-0.53125 -0.46875 -1.34375 -0.46875q-0.5625 0 -1.046875 0.25q-0.484375 0.25 -0.765625 0.6875l-0.859375 -0.640625q0.40625 -0.609375 1.109375 -0.953125q0.703125 -0.359375 1.5625 -0.359375q1.375 0 2.15625 0.734375q0.796875 0.71875 0.796875 1.96875l0 4.3125l-1.078125 0l0 -0.96875l-0.046875 0q-0.296875 0.484375 -0.890625 0.84375q-0.578125 0.34375 -1.3125 0.34375zm0.109375 -1.0q0.5625 0 1.046875 -0.296875q0.5 -0.296875 0.796875 -0.78125q0.296875 -0.5 0.296875 -1.09375q-0.328125 -0.203125 -0.796875 -0.328125q-0.453125 -0.140625 -0.984375 -0.140625q-0.921875 0 -1.40625 0.390625q-0.46875 0.375 -0.46875 0.984375q0 0.5625 0.421875 0.921875q0.4375 0.34375 1.09375 0.34375zm4.7334595 -1.0l3.90625 -1.796875l0 -0.0625l-3.90625 -1.796875l0 -1.046875l5.109375 2.453125l0 0.828125l-5.109375 2.453125l0 -1.03125z" fill-rule="nonzero"/><path fill="#000000" fill-opacity="0.0" d="m216.73753 268.6297l62.267715 0" fill-rule="evenodd"/><path stroke="#595959" stroke-width="3.0" stroke-linejoin="round" stroke-linecap="butt" d="m216.73753 268.62973l44.267715 0" fill-rule="evenodd"/><path fill="#595959" stroke="#595959" stroke-width="3.0" stroke-linecap="butt" d="m261.00525 273.5849l13.614288 -4.9551697l-13.614288 -4.9552z" fill-rule="evenodd"/></g></svg>