<?xml version="1.0" encoding="UTF-8" standalone="no"?>
<!DOCTYPE svg PUBLIC "-//W3C//DTD SVG 1.1//EN" "http://www.w3.org/Graphics/SVG/1.1/DTD/svg11.dtd">
<!-- Generated by Microsoft Visio, SVG Export bt_stack_arch.svg Page-1 -->
<svg xmlns="http://www.w3.org/2000/svg" xmlns:xlink="http://www.w3.org/1999/xlink" xmlns:ev="http://www.w3.org/2001/xml-events"
		width="7.3168in" height="6.22212in" viewBox="0 0 526.809 447.993" xml:space="preserve" color-interpolation-filters="sRGB"
		class="st8">
	<style type="text/css">
	<![CDATA[
		.st1 {fill:#cbd5e0;stroke:#000000;stroke-linecap:round;stroke-linejoin:round;stroke-width:1.2}
		.st2 {fill:#000000;font-family:Arial;font-size:1.08334em}
		.st3 {fill:#88b7e4;stroke:#000000;stroke-linecap:round;stroke-linejoin:round;stroke-width:1.2}
		.st4 {fill:#88b7e4;stroke:#000000;stroke-linecap:round;stroke-linejoin:round;stroke-width:0.72}
		.st5 {fill:#c4dbf2;stroke:#000000;stroke-linecap:round;stroke-linejoin:round;stroke-width:0.72}
		.st6 {font-size:1em}
		.st7 {fill:#cdcdcd;stroke:#000000;stroke-linecap:round;stroke-linejoin:round;stroke-width:0.72}
		.st8 {fill:none;fill-rule:evenodd;font-size:12px;overflow:visible;stroke-linecap:square;stroke-miterlimit:3}
	]]>
	</style>

	<g>
		<title>Page-1</title>
		<g id="shape24-1" transform="translate(1.2,-1.2)">
			<title>Box.24</title>
			<desc>nRF5x SoC</desc>
			<rect x="0" y="2.4" width="524.409" height="445.593" rx="8.50394" ry="8.50394" class="st1"/>
			<text x="453.22" y="18.1" class="st2">nRF5x SoC</text>		</g>
		<g id="shape13-4" transform="translate(22.4879,-18.1215)">
			<title>Box.13</title>
			<desc>SoftDevice</desc>
			<rect x="0" y="118.534" width="484.949" height="329.459" rx="8.50394" ry="8.50394" class="st3"/>
			<text x="418.09" y="134.23" class="st2">SoftDevice</text>		</g>
		<g id="shape22-7" transform="translate(40.885,-120.808)">
			<title>Box.22</title>
			<desc>Host</desc>
			<rect x="0" y="258.071" width="450.709" height="189.921" rx="8.50394" ry="8.50394" class="st4"/>
			<text x="419.98" y="273.77" class="st2">Host</text>		</g>
		<g id="shape23-10" transform="translate(38.0504,-32.9344)">
			<title>Box.23</title>
			<desc>Controller</desc>
			<rect x="0" y="365.788" width="453.543" height="82.2047" rx="8.50394" ry="8.50394" class="st4"/>
			<text x="393.19" y="381.49" class="st2">Controller</text>		</g>
		<g id="shape1-13" transform="translate(46.5543,-41.6074)">
			<title>Box.38</title>
			<desc>Physical Layer (PHY)</desc>
			<rect x="0" y="420.427" width="377.061" height="27.5656" rx="8.50394" ry="8.50394" class="st5"/>
			<text x="126.76" y="438.11" class="st2">Physical Layer (PHY)</text>		</g>
		<g id="shape2-16" transform="translate(97.8225,-240.729)">
			<title>Box.40</title>
			<desc>Generic Attribute Profile (GATT)</desc>
			<rect x="0" y="387.289" width="115.164" height="60.7039" rx="8.50394" ry="8.50394" class="st5"/>
			<text x="8.81" y="413.74" class="st2">Generic Attribute <tspan x="15.69" dy="1.2em" class="st6">Profile </tspan>(GATT)</text>		</g>
		<g id="shape3-20" transform="translate(97.2891,-179.906)">
			<title>Box.41</title>
			<desc>Attribute Protocol (ATT)</desc>
			<rect x="0" y="394.861" width="116.231" height="53.1312" rx="8.50394" ry="8.50394" class="st5"/>
			<text x="8.26" y="417.53" class="st2">Attribute Protocol <tspan x="41.51" dy="1.2em" class="st6">(</tspan>ATT)</text>		</g>
		<g id="shape5-24" transform="translate(46.324,-127.102)">
			<title>Box.43</title>
			<desc>Logical Link Control and Adaptation Layer Protocol (L2CAP)</desc>
			<rect x="0" y="402.638" width="289.417" height="45.3543" rx="8.50394" ry="8.50394" class="st5"/>
			<text x="24.02" y="421.42" class="st2">Logical Link Control and Adaptation Layer <tspan x="94.13" dy="1.2em"
						class="st6">Protocol </tspan>(L2CAP)</text>		</g>
		<g id="shape11-28" transform="translate(46.6075,-75.1095)">
			<title>Box.52</title>
			<desc>Link Layer (LL)</desc>
			<rect x="0" y="414.027" width="374.173" height="33.9661" rx="8.50394" ry="8.50394" class="st5"/>
			<text x="143.73" y="434.91" class="st2">Link Layer (LL)</text>		</g>
		<g id="shape8-31" transform="translate(603.397,69.2315) rotate(90)">
			<title>Double flexi-arrow.8</title>
			<path d="M0 447.99 L16.3 436.65 L15.45 443.74 L61.88 443.74 L61.03 436.65 L77.33 447.99 L61.03 459.33 L61.88 452.24 L15.45
						 452.24 L16.3 459.33 L0 447.99 Z" class="st7"/>
		</g>
		<g id="shape12-33" transform="translate(769.508,69.2315) rotate(90)">
			<title>Double flexi-arrow.12</title>
			<path d="M0 447.99 L16.3 436.65 L15.45 443.74 L60.44 443.74 L59.59 436.65 L75.89 447.99 L59.59 459.33 L60.44 452.24 L15.45
						 452.24 L16.3 459.33 L0 447.99 Z" class="st7"/>
		</g>
		<g id="shape4-35" transform="translate(221.735,-179.543)">
			<title>Box.4</title>
			<desc>Security Manager (SM)</desc>
			<rect x="0" y="394.134" width="115.164" height="53.8583" rx="8.50394" ry="8.50394" class="st5"/>
			<text x="6.64" y="417.16" class="st2">Security Manager <tspan x="43.5" dy="1.2em" class="st6">(</tspan>SM)</text>		</g>
		<g id="shape18-39" transform="translate(219.468,-127.102)">
			<title>Sheet.18</title>
			<desc>Generic Access Profile (GAP)</desc>
			<path d="M192.76 447.99 L131.92 447.99 A8.50394 8.50394 0 0 1 123.41 439.38 L124.62 342.71 A8.50394 8.50394 -180 0 0
						 116.11 334.1 L8.5 334.1 A8.50394 8.50394 0 0 1 0 325.6 L0 281.37 A8.50394 8.50394 0 0 1 8.5 272.87 L192.76
						 272.87 A8.50394 8.50394 0 0 1 201.26 281.37 L201.26 439.49 A8.50394 8.50394 0 0 1 192.76 447.99 Z"
					class="st5"/>
			<text x="34.88" y="301.93" class="st2">Generic Access Profile <tspan x="82.57" dy="1.2em" class="st6">(</tspan>GAP)</text>		</g>
		<g id="shape25-43" transform="translate(40.1413,-379.338)">
			<title>Box.25</title>
			<desc>Application Profiles and Services</desc>
			<rect x="0" y="403.216" width="380.586" height="44.7771" rx="8.50394" ry="8.50394" class="st5"/>
			<text x="158.49" y="421.7" class="st2">Application <tspan x="129.24" dy="1.2em" class="st6">Profiles and Services</tspan></text>		</g>
		<g id="shape7-47" transform="translate(517.224,69.2315) rotate(90)">
			<title>Double flexi-arrow.7</title>
			<path d="M0 447.99 L16.3 436.65 L15.45 443.74 L189.5 443.74 L188.65 436.65 L204.94 447.99 L188.65 459.33 L189.5 452.24
						 L15.45 452.24 L16.3 459.33 L0 447.99 Z" class="st7"/>
		</g>
	</g>
</svg>
